<svg xmlns="http://www.w3.org/2000/svg" xmlns:xlink="http://www.w3.org/1999/xlink" width="1366.547" height="497.044" viewBox="0 0 1366.547 497.044">
  <defs>
    <clipPath id="clip-path">
      <rect id="長方形_12" data-name="長方形 12" width="497.044" height="1366.547" fill="#fff"/>
    </clipPath>
  </defs>
  <g id="グループ_784" data-name="グループ 784" transform="translate(1570.547) rotate(90)" opacity="0.07">
    <g id="グループ_13" data-name="グループ 13" transform="translate(0 204)" clip-path="url(#clip-path)">
      <path id="パス_5" data-name="パス 5" d="M497.044,151.626q0,53.7-32.439,85.631-32.378,31.961-85.169,31.946H117.577q-53.053,0-85.323-31.946Q.015,205.343,0,151.626,0,97.6,32.254,65.81,64.54,34.034,117.577,34.049H379.436q52.776,0,85.169,31.761,32.424,31.776,32.439,85.816m-85.816,0q0-15.264-8.727-23.528c-5.828-5.489-13.506-8.264-23.065-8.264H117.577c-9.528,0-17.206,2.775-23.034,8.264q-8.742,8.279-8.727,23.528,0,15.264,8.727,23.528c5.828,5.489,13.506,8.264,23.034,8.264H379.436c9.559,0,17.237-2.775,23.065-8.264q8.742-8.28,8.727-23.528" transform="translate(0 647.882)" fill="#fff"/>
      <path id="パス_6" data-name="パス 6" d="M32.584,74.419Q.345,106.149.33,160.235V286.693c4.656-3.824,7.216-8.912,21.184-8.912H455.869c13.969,0,16.5,5.088,21.154,8.912V160.235q0-54.025-32.409-85.816Q412.19,42.6,359.445,42.627H117.907q-53.053,0-85.323,31.792m326.861,54.024c9.528,0,17.206,2.714,23.034,8.233s8.757,13.383,8.757,23.559v31.73H86.146v-31.73q0-15.264,8.727-23.559c5.828-5.52,13.506-8.233,23.034-8.233Z" transform="translate(9.846 903.815)" fill="#fff"/>
      <rect id="長方形_10" data-name="長方形 10" width="364.141" height="85.816" transform="translate(122.721 1271.838)" fill="#fff"/>
      <rect id="長方形_11" data-name="長方形 11" width="86.063" height="85.816" transform="translate(10.176 1271.85)" fill="#fff"/>
      <path id="パス_7" data-name="パス 7" d="M15.1,61.773H36.286V52.892c-4.656,3.793-7.216,8.881-21.184,8.881" transform="translate(450.582 1210.08)" fill="#fff"/>
      <path id="パス_8" data-name="パス 8" d="M36.286,55.963H15.1c13.969,0,16.528,5.088,21.184,8.881Z" transform="translate(450.582 1301.707)" fill="#fff"/>
      <path id="パス_9" data-name="パス 9" d="M25.164,55.963H3.98v8.881c4.625-3.793,7.216-8.881,21.184-8.881" transform="translate(118.747 1301.707)" fill="#fff"/>
      <path id="パス_10" data-name="パス 10" d="M.33,210.1v8.881c4.656-3.793,7.185-8.881,21.184-8.881H455.838c13.969,0,16.528,5.088,21.184,8.881V13.054H376.4c9.744,8.48,14.8,18.656,14.8,31.761v79.464H281.06V53.942c0-11.872,7.216-17.361,14.832-23.713H180.443c7.616,6.352,14.8,11.841,14.8,23.713v70.337H86.146V44.815c0-13.105,5.057-23.281,14.8-31.761H.33Z" transform="translate(9.846 21.477)" fill="#fff"/>
      <path id="パス_11" data-name="パス 11" d="M21.483,29.081C7.515,29.081,4.955,23.993.33,20.2v91.613l243.357,81.253L.33,274.319v91.614c4.625-3.793,7.185-8.881,21.153-8.881H455.869c13.969,0,16.5,5.088,21.123,8.881V268.707c-4.625,3.793-7.154,8.881-21.123,8.881H223.8l253.194-84.521L223.8,108.514H455.869c13.969,0,16.5,5.088,21.123,8.912V20.2c-4.625,3.793-7.154,8.881-21.123,8.881Z" transform="translate(9.846 234.684)" fill="#fff"/>
    </g>
  </g>
</svg>

