<svg xmlns="http://www.w3.org/2000/svg" xmlns:xlink="http://www.w3.org/1999/xlink" width="818.043" height="17.605" viewBox="0 0 818.043 17.605">
  <defs>
    <linearGradient id="linear-gradient" y1="0.5" x2="0.972" y2="0.5" gradientUnits="objectBoundingBox">
      <stop offset="0" stop-color="#fe9bb1"/>
      <stop offset="1" stop-color="#0092d8"/>
    </linearGradient>
    <linearGradient id="linear-gradient-2" y1="0.61" x2="1" y2="0.619" xlink:href="#linear-gradient"/>
    <linearGradient id="linear-gradient-3" y1="0.5" x2="0.99" y2="0.34" xlink:href="#linear-gradient"/>
    <clipPath id="clip-path">
      <rect id="長方形_14950" data-name="長方形 14950" width="0.5" height="13.538" transform="translate(0 0)" fill="#fff"/>
    </clipPath>
    <linearGradient id="linear-gradient-4" y1="0.5" x2="1" y2="0.5" xlink:href="#linear-gradient"/>
    <clipPath id="clip-path-2">
      <rect id="長方形_15000" data-name="長方形 15000" width="82.528" height="13.538" transform="translate(0 0)" fill="#fff"/>
    </clipPath>
    <clipPath id="clip-path-3">
      <rect id="長方形_14999" data-name="長方形 14999" width="90.972" height="12.753" transform="translate(0 0)" fill="#fff"/>
    </clipPath>
    <linearGradient id="linear-gradient-6" y1="0.5" x2="1.031" y2="0.5" xlink:href="#linear-gradient"/>
    <clipPath id="clip-path-4">
      <rect id="長方形_14998" data-name="長方形 14998" width="41.896" height="13.216" transform="translate(0 0)" fill="#fff"/>
    </clipPath>
    <clipPath id="clip-path-5">
      <rect id="長方形_14997" data-name="長方形 14997" width="65.853" height="15.414" transform="translate(0 0)" fill="#fff"/>
    </clipPath>
    <linearGradient id="linear-gradient-10" x1="0.017" y1="0.5" x2="1" y2="0.5" xlink:href="#linear-gradient"/>
    <clipPath id="clip-path-6">
      <rect id="長方形_14994" data-name="長方形 14994" width="67.128" height="12.67" transform="translate(0 0)" fill="#fff"/>
    </clipPath>
    <linearGradient id="linear-gradient-11" y1="0.5" x2="0.992" y2="0.5" gradientUnits="objectBoundingBox">
      <stop offset="0" stop-color="#fe9bb1"/>
      <stop offset="0" stop-color="#f09bb3"/>
      <stop offset="1" stop-color="#0092d8"/>
    </linearGradient>
    <clipPath id="clip-path-7">
      <rect id="長方形_14993" data-name="長方形 14993" width="112.698" height="13.229" transform="translate(0 0.001)" fill="#fff"/>
    </clipPath>
    <clipPath id="clip-path-8">
      <rect id="長方形_15249" data-name="長方形 15249" width="92.505" height="11.186" transform="translate(0 0)" fill="#fff"/>
    </clipPath>
  </defs>
  <g id="グループ_2196" data-name="グループ 2196" transform="translate(-94 -719.395)">
    <g id="グループ_2194" data-name="グループ 2194" transform="translate(-38.009 1)">
      <g id="グループ_1645" data-name="グループ 1645" transform="translate(851.025 720)">
        <path id="合体_22" data-name="合体 22" d="M1225.174-778.463l.111-.518H1219.7l-.109.518h-1.654l1.232-5.8h8.965l-1.232,5.8Zm-5.162-2h5.589l.488-2.3H1220.5Zm-15.054.477a11.214,11.214,0,0,0,5.651-6.552h-3.11a18.992,18.992,0,0,1-2.6,2.674,10.2,10.2,0,0,0-1.43-.854,17.811,17.811,0,0,0,5.076-6.552l2.076.448a.493.493,0,0,1-.457.239c-.323.6-.907,1.568-1.458,2.38h7.339l-.354,1.666h-2.983a.4.4,0,0,1-.319.182,13.048,13.048,0,0,1-6.108,7.448A10.2,10.2,0,0,0,1204.957-779.989Zm-14.864-.812a18.739,18.739,0,0,0,10.991-7.756,12.306,12.306,0,0,0,1.283,1.148,20.938,20.938,0,0,1-11.045,8.008.454.454,0,0,1-.291.378Zm42.424-3.71c.078-.5.167-1.05.29-1.625a36.379,36.379,0,0,1,1.1-4.005l2.207.421a.541.541,0,0,1-.414.238,24.73,24.73,0,0,0-1.183,3.849c-.655,3.081.008,4.186.791,4.186.476,0,1.363-1.4,1.918-2.561a6.653,6.653,0,0,0,1.191,1.12c-1.16,2.3-2.3,3.361-3.586,3.361C1232.662-779.526,1232.172-782.229,1232.518-784.51Zm-58.454,3.906a24.409,24.409,0,0,0,4.912-8.945l2.227.531a.516.516,0,0,1-.45.266,30.008,30.008,0,0,1-5.12,9A7.843,7.843,0,0,0,1174.063-780.6Zm-9.276.84,1.055-3.052h-1.387l-1.055,3.052h-1.247l1.069-3.052h-1.247l.26-1.218h1.428l.732-2.128h-1.3l.26-1.218h1.472l1.039-2.982h1.219l-1.026,2.982h1.4l1.04-2.982h1.219l-1.026,2.982h1.233l-.257,1.218h-1.4l-.733,2.128h1.289l-.259,1.218h-1.484l-1.041,3.052Zm.108-4.27h1.4l.719-2.128h-1.386Zm18.8-5,1.941-.7a37.68,37.68,0,0,1,1.621,9.113l-2.052.756A40.178,40.178,0,0,0,1183.7-789.033ZM1240.276-788l1.386-1.315a6.009,6.009,0,0,1,2.828,5.74l-1.98.616C1242.626-785.477,1241.781-786.974,1240.276-788Zm-50.254,2.129,1.066-1.456a16.24,16.24,0,0,1,3.309,1.3l-1.08,1.525A16.846,16.846,0,0,0,1190.022-785.868Zm27.335-.756a20.486,20.486,0,0,0,6.862-5.068l2.228.126a.526.526,0,0,1-.437.279,11.167,11.167,0,0,0,4.936,4.451,10.888,10.888,0,0,0-1.414,1.512,15.152,15.152,0,0,1-1.875-1.329l-.211.994h-7.059l.213-1.007a26.4,26.4,0,0,1-2.493,1.385A5.393,5.393,0,0,0,1217.357-786.624Zm3.975-.519h5.757a11.269,11.269,0,0,1-2.318-2.87A19.046,19.046,0,0,1,1221.332-787.144Zm-28.912-2.239,1.08-1.387a17.429,17.429,0,0,1,3.319,1.387l-1.184,1.484A15.316,15.316,0,0,0,1192.421-789.383Zm6.622-1.231.926-.6a7.992,7.992,0,0,1,1.24,1.946l-.991.643A9.214,9.214,0,0,0,1199.043-790.614Zm2.307-.77.915-.616a9.442,9.442,0,0,1,1.245,1.918l-.976.643A9.753,9.753,0,0,0,1201.35-791.384Z" transform="translate(-1161.975 792)" stroke="rgba(0,0,0,0)" stroke-miterlimit="10" stroke-width="1" fill="url(#linear-gradient-4)"/>
      </g>
      <g id="グループ_1645-2" data-name="グループ 1645" transform="translate(850.787 719)">
        <path id="パス_64273" data-name="パス 64273" d="M3.653,5.838H5.039L4.32,7.966H2.92Zm2.867-4.2L5.48,4.62H4.08L5.106,1.638H3.887L2.848,4.62H1.377l-.26,1.218h1.3L1.688,7.966H.26L0,9.184H1.247L.178,12.236H1.425L2.48,9.184H3.867L2.812,12.236H4.058L5.1,9.184H6.583l.259-1.218H5.554l.732-2.128h1.4L7.946,4.62H6.713L7.739,1.638Z" fill="#fff"/>
        <g id="グループ_1644" data-name="グループ 1644">
          <g id="グループ_1643" data-name="グループ 1643" clip-path="url(#clip-path-2)">
            <path id="パス_64274" data-name="パス 64274" d="M19.227,2.982a.516.516,0,0,1-.45.266,30,30,0,0,1-5.12,9,7.819,7.819,0,0,0-1.569-.854A24.408,24.408,0,0,0,17,2.451Zm4.437-.714a37.684,37.684,0,0,1,1.621,9.114l-2.052.756a40.169,40.169,0,0,0-1.51-9.17Z" fill="#fff"/>
            <path id="パス_64275" data-name="パス 64275" d="M29.113,4.676a16.257,16.257,0,0,1,3.309,1.3L31.342,7.5a16.823,16.823,0,0,0-3.295-1.371Zm-1,6.524A18.741,18.741,0,0,0,39.109,3.444a12.146,12.146,0,0,0,1.284,1.148A20.936,20.936,0,0,1,29.348,12.6a.453.453,0,0,1-.291.378Zm3.408-9.969a17.413,17.413,0,0,1,3.319,1.387L33.661,4.1a15.276,15.276,0,0,0-3.215-1.484ZM37.994.784a7.981,7.981,0,0,1,1.24,1.946l-.991.644a9.214,9.214,0,0,0-1.175-1.988ZM40.29,0a9.506,9.506,0,0,1,1.245,1.918l-.976.644A9.762,9.762,0,0,0,39.375.616Z" fill="#fff"/>
            <path id="パス_64276" data-name="パス 64276" d="M54.071,3.794,53.717,5.46H50.734a.4.4,0,0,1-.319.182,13.049,13.049,0,0,1-6.108,7.448,10.233,10.233,0,0,0-1.325-1.078A11.218,11.218,0,0,0,48.633,5.46h-3.11a19.013,19.013,0,0,1-2.6,2.674,10.083,10.083,0,0,0-1.43-.854A17.818,17.818,0,0,0,46.57.728l2.076.448a.492.492,0,0,1-.457.238c-.323.6-.907,1.568-1.458,2.38Z" fill="#fff"/>
            <path id="パス_64277" data-name="パス 64277" d="M58.626,5.334a26.551,26.551,0,0,1-2.493,1.385,5.413,5.413,0,0,0-.751-1.343A20.494,20.494,0,0,0,62.244.308l2.228.126a.526.526,0,0,1-.437.279A11.171,11.171,0,0,0,68.97,5.165a10.847,10.847,0,0,0-1.414,1.512,15.184,15.184,0,0,1-1.874-1.33l-.211.994H58.412Zm-2.669,8.2,1.232-5.8h8.965l-1.232,5.8H63.2l.11-.518H57.72l-.109.518Zm8.156-4.3H58.524l-.488,2.3h5.589Zm1-4.382A11.282,11.282,0,0,1,62.8,1.987a19.075,19.075,0,0,1-3.44,2.87Z" fill="#fff"/>
            <path id="パス_64278" data-name="パス 64278" d="M74.142,2.282a.54.54,0,0,1-.414.238,24.778,24.778,0,0,0-1.183,3.85c-.655,3.08.008,4.186.791,4.186.476,0,1.363-1.4,1.918-2.562a6.653,6.653,0,0,0,1.191,1.12c-1.16,2.3-2.3,3.36-3.586,3.36-2.172,0-2.662-2.7-2.316-4.984.078-.5.167-1.05.289-1.624a36.331,36.331,0,0,1,1.1-4.005Zm6.393,6.762C80.651,6.524,79.806,5.026,78.3,4l1.386-1.315a6.008,6.008,0,0,1,2.828,5.74Z" fill="#fff"/>
          </g>
        </g>
      </g>
    </g>
    <g id="グループ_2193" data-name="グループ 2193" transform="translate(-38.246 1)">
      <g id="グループ_1642" data-name="グループ 1642" transform="translate(744.053 721)">
        <path id="合体_21" data-name="合体 21" d="M1325.517-780.245l1.4-6.581a53.782,53.782,0,0,1-5.207,2.618,4.836,4.836,0,0,0-.775-1.358,42.433,42.433,0,0,0,11.5-7.027l1.49,1.288a.577.577,0,0,1-.48.154,51.339,51.339,0,0,1-4.457,3.178c.144.041.283.112.416.154a.578.578,0,0,1-.464.266l-1.553,7.309Zm-25.34,0,1.4-6.581a53.748,53.748,0,0,1-5.206,2.618,4.863,4.863,0,0,0-.775-1.358,42.44,42.44,0,0,0,11.495-7.027l1.49,1.288a.578.578,0,0,1-.481.154,51.06,51.06,0,0,1-4.457,3.178c.144.041.284.112.416.154a.577.577,0,0,1-.463.266l-1.554,7.309Zm45.3-.94c2.324-2.17,3.349-5.809,4.111-9.393l2.155.139a.479.479,0,0,1-.429.308c-.923,4.018-1.993,7.267-4.461,9.856A16.034,16.034,0,0,0,1345.481-781.185Zm-9.972.883,2.616-12.306,2.272.112a.524.524,0,0,1-.494.35l-.848,3.991.45-.476a34.606,34.606,0,0,1,4.563,2.2l-1.362,1.723a30.824,30.824,0,0,0-3.937-2.1l-1.384,6.51Zm-27.162-1.12c2.965-1.428,4.647-4.2,5.51-7.336l2.232.238a.53.53,0,0,1-.441.294c-1,3.066-2.837,6.23-6.013,7.924A9.568,9.568,0,0,0,1308.347-781.421Zm43.2-.645.286-.294,2.116-9.954,2.161.113a.534.534,0,0,1-.463.335l-1.851,8.708a10.988,10.988,0,0,0,4.739-5.095,7.63,7.63,0,0,0,1.378.965,14.181,14.181,0,0,1-6.98,6.412,1.312,1.312,0,0,1-.4.35Zm-67.927-3.905,1.5-1.261a18.211,18.211,0,0,1,2.251,1.667,27.246,27.246,0,0,0,4.536-3.683h-9.049l.355-1.666h10.45l.269-.139,1.241,1.008a.518.518,0,0,1-.342.223,33.491,33.491,0,0,1-6.287,5.263,17.013,17.013,0,0,1,2,2.269l-1.844,1.358A19.625,19.625,0,0,0,1283.623-785.972Zm-11.866,4.857,1.056-3.051h-1.387l-1.057,3.051h-1.246l1.069-3.051h-1.247l.259-1.219h1.428l.734-2.128h-1.3l.26-1.218h1.47l1.041-2.983h1.219l-1.028,2.983h1.4l1.04-2.983h1.219l-1.026,2.983h1.232l-.258,1.218h-1.4l-.732,2.128h1.287l-.259,1.219h-1.484l-1.04,3.051Zm.109-4.271h1.4l.721-2.128H1272.6Zm44.543-2.071a10.968,10.968,0,0,0,2.66-2.758h-9.063l.355-1.666h10.084l.223-.126,1.349.77a.544.544,0,0,1-.325.211,20.043,20.043,0,0,1-3.916,4.522A7.629,7.629,0,0,0,1316.409-787.456Zm25.764-3.64.911-.658a8.845,8.845,0,0,1,1.345,1.9l-.958.686A9.436,9.436,0,0,0,1342.174-791.1Zm2.188-1.26.906-.644a7.983,7.983,0,0,1,1.355,1.861l-.955.673A8.7,8.7,0,0,0,1344.362-792.356Z" transform="translate(-1268.946 793)" stroke="rgba(0,0,0,0)" stroke-miterlimit="10" stroke-width="1" fill="url(#linear-gradient-4)"/>
      </g>
      <g id="グループ_1642-2" data-name="グループ 1642" transform="translate(743.815 720)">
        <path id="パス_64266" data-name="パス 64266" d="M3.654,5.487H5.041L4.32,7.615H2.92Zm2.867-4.2L5.481,4.269H4.08L5.107,1.287H3.889L2.848,4.269H1.378l-.26,1.218h1.3L1.688,7.615H.26L0,8.834H1.247L.178,11.885H1.424L2.48,8.834H3.867L2.812,11.885H4.057L5.1,8.834H6.582l.259-1.219H5.554l.732-2.128h1.4l.258-1.218H6.714L7.74,1.287Z" fill="#fff"/>
        <g id="グループ_1641" data-name="グループ 1641">
          <g id="グループ_1640" data-name="グループ 1640" clip-path="url(#clip-path-3)">
            <path id="パス_64267" data-name="パス 64267" d="M26.231,2.954a.518.518,0,0,1-.342.224A33.506,33.506,0,0,1,19.6,8.441a16.966,16.966,0,0,1,2,2.269l-1.844,1.358a19.6,19.6,0,0,0-5.078-5.04l1.5-1.261a18.158,18.158,0,0,1,2.251,1.667,27.222,27.222,0,0,0,4.536-3.683H13.917l.354-1.666h10.45l.269-.139Z" fill="#fff"/>
            <path id="パス_64268" data-name="パス 64268" d="M39.632,1.694a.574.574,0,0,1-.48.154,51.1,51.1,0,0,1-4.457,3.178c.144.042.284.112.416.154a.577.577,0,0,1-.463.266l-1.554,7.308H31.231l1.4-6.58a54.1,54.1,0,0,1-5.207,2.618,4.845,4.845,0,0,0-.775-1.358A42.426,42.426,0,0,0,38.142.406Z" fill="#fff"/>
            <path id="パス_64269" data-name="パス 64269" d="M47.143,4.48a.53.53,0,0,1-.441.294C45.7,7.84,43.865,11,40.689,12.7a9.544,9.544,0,0,0-1.288-1.12c2.965-1.428,4.647-4.2,5.51-7.336Zm5.928-2.716a.541.541,0,0,1-.325.21A20.017,20.017,0,0,1,48.83,6.5a7.564,7.564,0,0,0-1.367-.952,10.957,10.957,0,0,0,2.66-2.758H41.06l.354-1.666H51.5l.223-.126Z" fill="#fff"/>
            <path id="パス_64270" data-name="パス 64270" d="M64.972,1.694a.574.574,0,0,1-.48.154,51.1,51.1,0,0,1-4.457,3.178c.144.042.284.112.416.154a.577.577,0,0,1-.463.266l-1.554,7.308H56.571l1.4-6.58a54.1,54.1,0,0,1-5.207,2.618,4.845,4.845,0,0,0-.775-1.358A42.426,42.426,0,0,0,63.482.406Z" fill="#fff"/>
            <path id="パス_64271" data-name="パス 64271" d="M73.761,8.288a30.74,30.74,0,0,0-3.937-2.1L68.44,12.7H66.563L69.179.392,71.452.5a.526.526,0,0,1-.494.35l-.848,3.99.45-.476a34.679,34.679,0,0,1,4.563,2.2Zm.377-7.042a8.818,8.818,0,0,1,1.346,1.9l-.958.685a9.446,9.446,0,0,0-1.3-1.931ZM76.322,0a7.98,7.98,0,0,1,1.355,1.861l-.955.673A8.658,8.658,0,0,0,75.415.644Z" fill="#fff"/>
            <path id="パス_64272" data-name="パス 64272" d="M82.8,2.561a.48.48,0,0,1-.429.308c-.924,4.018-1.993,7.266-4.462,9.856a15.92,15.92,0,0,0-1.375-.91c2.324-2.17,3.349-5.809,4.111-9.393Zm2.053,7.28a10.986,10.986,0,0,0,4.739-5.095,7.654,7.654,0,0,0,1.378.965,14.18,14.18,0,0,1-6.98,6.412,1.324,1.324,0,0,1-.4.35l-.989-1.54.286-.294L85.007.685,87.168.8a.536.536,0,0,1-.463.335Z" fill="#fff"/>
          </g>
        </g>
      </g>
    </g>
    <g id="グループ_2192" data-name="グループ 2192" transform="translate(-38.484 1)">
      <g id="グループ_1639" data-name="グループ 1639" transform="translate(686.157 720)">
        <path id="合体_20" data-name="合体 20" d="M1361.554-778.784l.383-1.805h-2.746l.3-1.386h2.746l.158-.742h-1.611l.16-.756a9.806,9.806,0,0,1-1.562,1.219,5.8,5.8,0,0,0-.7-1.191,8.438,8.438,0,0,0,2.179-1.946h-1.317l.294-1.386h1.99c.128-.21.246-.434.363-.658h-1.261l.276-1.288h1.6l.258-.617h-2.115l.291-1.372h2.31c.149-.434.281-.854.4-1.274l1.844.224a.385.385,0,0,1-.384.224c-.085.266-.187.546-.274.826h3.614l-.291,1.372h-3.839a6.172,6.172,0,0,1-.256.617h3.628l-.275,1.288h-1.639c.037.224.074.448.127.658h2.046l-.294,1.386h-1.3a4.369,4.369,0,0,0,1.2,1.666,6.5,6.5,0,0,0-1.34,1.232,4.983,4.983,0,0,1-.795-1.078l-.18.854h-1.612l-.157.742h2.759l-.294,1.386h-2.76l-.384,1.805Zm3.169-6.076c-.042.126-.157.21-.4.252l-.128.6h1.3a9.081,9.081,0,0,1-.476-1.386h-2.452a12.959,12.959,0,0,1-1.108,1.386h1.205l.206-.966Zm-1.3-1.918h1.346c-.04-.21-.049-.434-.07-.658h-.925Zm-8.181,7.98,1.13-5.32a15.091,15.091,0,0,1-1.886,2.813,6.692,6.692,0,0,0-.427-1.484,18.287,18.287,0,0,0,2.911-4.731h-1.583l.33-1.554h1.709l.622-2.926,1.866.112c-.04.126-.156.211-.417.252l-.544,2.562h1.415l-.33,1.554h-1.416l-.136.643c.26.491.957,1.89,1.109,2.226l-1.11,1.2a14.859,14.859,0,0,0-.413-1.484l-1.3,6.133Zm-14.518,0,1.188-5.586a16.194,16.194,0,0,1-2.274,3.178,6.694,6.694,0,0,0-.461-1.582,17.65,17.65,0,0,0,3.187-4.718h-1.82l.336-1.582h2.031l.619-2.911,1.951.112c-.043.14-.158.211-.42.266l-.539,2.534h1.764l-.336,1.582h-1.764l-.182.854c.376.532,1.27,2,1.476,2.352l-1.246,1.372a17.14,17.14,0,0,0-.651-1.75l-1.25,5.881Zm3.9-.112,2.618-12.32h6.625l-2.6,12.236h-1.695l.155-.728h-3.321l-.172.812Zm2.108-2.337h3.32l.384-1.806h-3.321Zm.708-3.333h3.32l.383-1.805h-3.321Zm.7-3.317h3.32l.372-1.75h-3.32Zm-18.492,7.826,1.056-3.051h-1.387l-1.056,3.051h-1.246l1.068-3.051h-1.246l.26-1.219h1.428l.732-2.128h-1.3l.258-1.218h1.472l1.039-2.982h1.219l-1.026,2.982h1.4l1.04-2.982h1.219l-1.026,2.982h1.233l-.259,1.218h-1.4l-.732,2.128h1.288l-.259,1.219h-1.483l-1.041,3.051Zm.108-4.27h1.4l.72-2.128H1330.5Z" transform="translate(-1326.843 792)" stroke="rgba(0,0,0,0)" stroke-miterlimit="10" stroke-width="1" fill="url(#linear-gradient-6)"/>
      </g>
      <g id="グループ_1639-2" data-name="グループ 1639" transform="translate(685.919 719)">
        <path id="パス_64263" data-name="パス 64263" d="M3.653,5.53H5.04L4.32,7.658H2.92ZM6.52,1.33,5.48,4.312H4.08L5.106,1.33H3.887L2.848,4.312H1.376L1.118,5.53h1.3L1.688,7.658H.26L0,8.877H1.247L.178,11.928H1.425L2.48,8.877H3.867L2.812,11.928H4.058L5.1,8.877H6.583l.259-1.219H5.554L6.286,5.53h1.4l.259-1.218H6.713L7.739,1.33Z" fill="#fff"/>
        <g id="グループ_1638" data-name="グループ 1638">
          <g id="グループ_1637" data-name="グループ 1637" clip-path="url(#clip-path-4)">
            <path id="パス_64264" data-name="パス 64264" d="M17.341,4.494l-.182.854c.377.532,1.27,2,1.476,2.352L17.39,9.072a17.237,17.237,0,0,0-.651-1.75l-1.25,5.88h-1.61l1.188-5.586a16.222,16.222,0,0,1-2.274,3.178,6.743,6.743,0,0,0-.461-1.582,17.672,17.672,0,0,0,3.187-4.718H13.7l.336-1.582h2.031L16.685,0l1.951.112c-.043.14-.157.21-.42.266l-.539,2.534h1.764L19.1,4.494ZM20.4.77h6.625l-2.6,12.236H22.731l.155-.728H19.565l-.172.812h-1.61Zm-.51,9.982h3.32l.384-1.806H20.274ZM24.3,5.614H20.982L20.6,7.42h3.32ZM25,2.352h-3.32L21.3,4.1h3.32Z" fill="#fff"/>
            <path id="パス_64265" data-name="パス 64265" d="M31.777,4.48l-.136.644c.26.49.957,1.89,1.109,2.226l-1.11,1.2a14.483,14.483,0,0,0-.413-1.484l-1.3,6.132H28.4l1.13-5.32A15.043,15.043,0,0,1,27.641,10.7a6.679,6.679,0,0,0-.427-1.484A18.287,18.287,0,0,0,30.125,4.48H28.542l.33-1.554h1.709L31.2,0l1.866.112c-.04.126-.156.21-.417.252l-.544,2.562h1.415l-.33,1.554Zm6.909,4.8H37.074l-.158.742h2.76l-.295,1.386h-2.76l-.384,1.806H34.711L35.1,11.41H32.349l.3-1.386H35.39l.158-.742H33.937l.16-.756a9.8,9.8,0,0,1-1.562,1.218,5.813,5.813,0,0,0-.7-1.19,8.468,8.468,0,0,0,2.179-1.946H32.7l.294-1.386h1.99c.128-.21.246-.434.363-.658H34.084l.275-1.288h1.6l.258-.616H34.1l.291-1.372H36.7c.15-.434.281-.854.4-1.274l1.844.224a.384.384,0,0,1-.384.224c-.085.266-.187.546-.275.826H41.9L41.606,2.66H37.768a6.193,6.193,0,0,1-.257.616h3.628l-.275,1.288H39.225c.037.224.074.448.127.658H41.4L41.1,6.608H39.8A4.366,4.366,0,0,0,41,8.274a6.532,6.532,0,0,0-1.34,1.232,5,5,0,0,1-.794-1.078ZM35.724,6.608a13.09,13.09,0,0,1-1.108,1.386h1.2l.206-.966,1.853.112c-.042.126-.157.21-.4.252l-.128.6h1.3a9.235,9.235,0,0,1-.476-1.386Zm2.2-1.386c-.039-.21-.048-.434-.07-.658h-.925l-.35.658Z" fill="#fff"/>
          </g>
        </g>
      </g>
    </g>
    <g id="グループ_2191" data-name="グループ 2191" transform="translate(-38.721 1)">
      <g id="グループ_1636" data-name="グループ 1636" transform="translate(604.304 720)">
        <path id="合体_19" data-name="合体 19" d="M1458.345-778.336a5.3,5.3,0,0,0,1.214-.574,3.715,3.715,0,0,0,1.344-1.442,1.068,1.068,0,0,0-.01-.35l-1.1-7.168h2.268l.284,4.073c.025.475.049,1.022.055,1.456h.042c.173-.42.415-.966.632-1.456l1.846-4.073h2.156l-2.916,5.417a16.334,16.334,0,0,1-3.425,4.774,5.179,5.179,0,0,1-2.248,1.093Zm-26.229-1.526c-2.086.2-4.2.378-5.589.463a.39.39,0,0,1-.3.223l-.207-1.792,1.255-.041c.636-.617,1.337-1.345,2.032-2.114a11.811,11.811,0,0,0-2.074-2.562l1.19-1.175c.114.112.246.223.375.336.473-.574.986-1.274,1.417-1.918h-2.48l.328-1.54h3.026l.427-2.016,2.008.112c-.043.14-.174.224-.424.28l-.345,1.625h3.179l-.327,1.54h-3.236a.539.539,0,0,1-.438.154,28.683,28.683,0,0,1-2.25,2.674,8.316,8.316,0,0,1,.864,1.078c.864-1.036,1.674-2.072,2.332-3l1.619.882a.549.549,0,0,1-.472.182,61.1,61.1,0,0,1-4.9,5.39c.849-.042,1.755-.084,2.664-.14a16.159,16.159,0,0,0-.538-1.553l1.492-.63a12.6,12.6,0,0,1,1.134,3.892l-1.639.728A7.026,7.026,0,0,0,1432.116-779.863Zm6.2-1.288a2.926,2.926,0,0,1,.36-.84,1.845,1.845,0,0,1-.473.056c-.953,0-1.673-.7-1.357-2.184a3.159,3.159,0,0,1,2.875-2.715,1.051,1.051,0,0,1,.65.167c.129-.406.256-.882.387-1.358-.378,0-2.219.029-2.637.014l.328-1.54c.557.013,1.257.013,1.958.013.237,0,.5,0,.759-.013.194-.714.354-1.4.476-1.974l2.178.167c-.047.154-.219.237-.455.294-.11.448-.248.91-.379,1.386a18.3,18.3,0,0,0,2.744-.518l-.149,1.625a18.174,18.174,0,0,1-3.055.462c-.306.98-.6,1.89-.8,2.506a2.737,2.737,0,0,1-.066.63,5.428,5.428,0,0,1-.993,2.17,2.549,2.549,0,0,0-.512.966c-.2.952.861.952,1.758.952a10.935,10.935,0,0,0,2.852-.309,1.327,1.327,0,0,0,.941-1.064,3.9,3.9,0,0,0-.534-2.492,12.679,12.679,0,0,0,1.653-.6,5.193,5.193,0,0,1,.664,3.4,2.976,2.976,0,0,1-2.317,2.268,18.446,18.446,0,0,1-3.55.349C1440.554-779.331,1437.94-779.359,1438.321-781.151Zm-.141-3.094c-.128.6.092.952.6.952.813,0,1.164-.994,1.245-1.372.106-.5-.017-.91-.451-.91A1.469,1.469,0,0,0,1438.18-784.245Zm29.459.377c.476-2.239,2.175-4.172,4.458-4.172,1.893,0,2.84,1.345,2.3,3.865a5.253,5.253,0,0,1-.23.826H1469.5c-.226,1.33.613,1.862,1.734,1.862a6.278,6.278,0,0,0,1.973-.323l-.01,1.429a7.384,7.384,0,0,1-2.615.446C1468.175-779.934,1467.125-781.444,1467.639-783.868Zm2.171-.922h2.8c.185-.812.075-1.807-.948-1.807C1470.671-786.6,1470.031-785.561,1469.81-784.79Zm-19.012.922c.476-2.239,2.174-4.172,4.458-4.172,1.892,0,2.839,1.345,2.3,3.865a5.355,5.355,0,0,1-.231.826h-4.665c-.226,1.33.613,1.862,1.733,1.862a6.294,6.294,0,0,0,1.975-.323l-.01,1.429a7.388,7.388,0,0,1-2.615.446C1451.333-779.934,1450.283-781.444,1450.8-783.868Zm2.171-.922h2.8c.187-.812.077-1.807-.947-1.807C1453.829-786.6,1453.19-785.561,1452.968-784.79Zm-31.913,4.774,2.4-11.312h4.608l-2.163,10.178h-3.068l-.241,1.134Zm2.1-2.618h1.484l.318-1.5h-1.484Zm.618-2.911h1.485l.311-1.471h-1.484Zm.614-2.884h1.484l.3-1.427h-1.485Zm-12.877,8.358,1.055-3.051h-1.387l-1.055,3.051h-1.247l1.068-3.051H1408.7l.26-1.219h1.427l.733-2.128h-1.3l.258-1.218h1.471l1.04-2.983h1.219l-1.026,2.983h1.4l1.039-2.983h1.219l-1.026,2.983h1.233l-.259,1.218h-1.4l-.732,2.128h1.288l-.259,1.219h-1.484l-1.04,3.051Zm.108-4.27h1.4l.72-2.128h-1.387Zm34.065-2.9.674-1.526a10.122,10.122,0,0,1,3.69.9l-.827,1.651A10.136,10.136,0,0,0,1445.681-787.24Z" transform="translate(-1408.696 792)" stroke="rgba(0,0,0,0)" stroke-miterlimit="10" stroke-width="1" fill="url(#linear-gradient-4)"/>
      </g>
      <g id="グループ_1636-2" data-name="グループ 1636" transform="translate(604.066 719)">
        <path id="パス_64257" data-name="パス 64257" d="M3.653,5.53H5.04L4.32,7.658H2.92ZM6.52,1.33,5.48,4.312H4.08L5.106,1.33H3.887L2.848,4.312H1.376L1.118,5.53h1.3L1.688,7.658H.26L0,8.877H1.247L.178,11.928H1.425L2.48,8.877H3.867L2.812,11.928H4.058L5.1,8.877H6.583l.259-1.219H5.554L6.286,5.53h1.4l.259-1.218H6.713L7.739,1.33Z" fill="#fff"/>
        <g id="グループ_1635" data-name="グループ 1635">
          <g id="グループ_1634" data-name="グループ 1634" clip-path="url(#clip-path-5)">
            <path id="パス_64258" data-name="パス 64258" d="M19.372.672,17.209,10.85H14.141L13.9,11.984H12.359L14.764.672ZM14.457,9.366h1.484l.318-1.5H14.775Zm.931-4.382-.313,1.47H16.56l.312-1.47Zm2.089-2.842H15.992l-.3,1.428h1.484ZM24.047,8.6a12.586,12.586,0,0,1,1.134,3.892l-1.639.728a6.972,6.972,0,0,0-.122-1.078c-2.086.2-4.2.378-5.589.462a.393.393,0,0,1-.3.224l-.207-1.792,1.255-.042c.636-.616,1.337-1.344,2.032-2.114a11.819,11.819,0,0,0-2.074-2.562l1.189-1.176c.115.112.246.224.376.336.473-.574.986-1.274,1.417-1.918h-2.48l.327-1.54h3.026L22.82,0l2.008.112c-.044.14-.174.224-.424.28l-.345,1.624h3.179l-.327,1.54H23.676a.539.539,0,0,1-.439.154,28.536,28.536,0,0,1-2.25,2.674,8.348,8.348,0,0,1,.864,1.078c.864-1.036,1.674-2.072,2.332-3l1.619.882a.548.548,0,0,1-.472.182,61.006,61.006,0,0,1-4.9,5.39c.849-.042,1.755-.084,2.664-.14a16.069,16.069,0,0,0-.538-1.554Z" fill="#fff"/>
            <path id="パス_64259" data-name="パス 64259" d="M36.89,3.43a18.119,18.119,0,0,1-3.054.462c-.306.98-.6,1.89-.8,2.506a2.726,2.726,0,0,1-.065.63,5.428,5.428,0,0,1-.993,2.17,2.552,2.552,0,0,0-.512.966c-.2.952.861.952,1.758.952a10.973,10.973,0,0,0,2.852-.308,1.33,1.33,0,0,0,.941-1.064,3.9,3.9,0,0,0-.534-2.492,12.68,12.68,0,0,0,1.654-.6,5.194,5.194,0,0,1,.664,3.4,2.975,2.975,0,0,1-2.317,2.268,18.444,18.444,0,0,1-3.549.35c-1.079,0-3.692-.028-3.311-1.82a2.893,2.893,0,0,1,.36-.84,1.862,1.862,0,0,1-.473.056c-.953,0-1.673-.7-1.357-2.184A3.16,3.16,0,0,1,31.03,5.166a1.05,1.05,0,0,1,.65.168c.129-.406.257-.882.387-1.358-.378,0-2.219.028-2.637.014l.328-1.54c.557.014,1.257.014,1.958.014.237,0,.5,0,.759-.014.194-.714.354-1.4.476-1.974l2.178.168c-.047.154-.219.237-.455.294-.11.448-.249.91-.379,1.386a18.326,18.326,0,0,0,2.744-.518ZM31.325,7.336c.106-.5-.017-.91-.451-.91a1.47,1.47,0,0,0-1.39,1.33c-.128.6.092.952.6.952.813,0,1.164-.994,1.245-1.372m6.334-4.1a10.119,10.119,0,0,1,3.69.9l-.827,1.652A10.159,10.159,0,0,0,36.985,4.76Z" fill="#fff"/>
            <path id="パス_64260" data-name="パス 64260" d="M47.663,11.62a7.385,7.385,0,0,1-2.615.447c-2.411,0-3.461-1.511-2.947-3.934.476-2.239,2.175-4.172,4.458-4.172,1.892,0,2.839,1.345,2.3,3.865a5.379,5.379,0,0,1-.231.826H43.966c-.226,1.33.613,1.862,1.733,1.862a6.28,6.28,0,0,0,1.974-.323Zm-.589-4.41c.187-.812.076-1.807-.947-1.807-.994,0-1.634,1.036-1.855,1.807Z" fill="#fff"/>
            <path id="パス_64261" data-name="パス 64261" d="M58.384,4.13,55.468,9.548a16.33,16.33,0,0,1-3.424,4.773,5.186,5.186,0,0,1-2.249,1.093l-.146-1.75a5.31,5.31,0,0,0,1.214-.574,3.712,3.712,0,0,0,1.343-1.442,1.053,1.053,0,0,0-.009-.35L51.1,4.13h2.268L53.653,8.2c.025.475.048,1.022.055,1.456h.042c.173-.42.415-.966.632-1.456L56.228,4.13Z" fill="#fff"/>
            <path id="パス_64262" data-name="パス 64262" d="M64.5,11.62a7.385,7.385,0,0,1-2.615.447c-2.411,0-3.461-1.511-2.947-3.934.476-2.239,2.175-4.172,4.458-4.172,1.892,0,2.839,1.345,2.3,3.865a5.268,5.268,0,0,1-.231.826H60.808c-.226,1.33.613,1.862,1.734,1.862a6.273,6.273,0,0,0,1.973-.323Zm-.588-4.41C64.1,6.4,63.992,5.4,62.969,5.4c-.994,0-1.634,1.036-1.855,1.807Z" fill="#fff"/>
          </g>
        </g>
      </g>
    </g>
    <g id="グループ_2224" data-name="グループ 2224" transform="translate(3.153 -25.342)">
      <path id="合体_28" data-name="合体 28" d="M6590.247-36.67l.594-2.8a17.135,17.135,0,0,1-5.045,2.645,4.763,4.763,0,0,0-.77-1.315,16.849,16.849,0,0,0,4.646-2.031h-1.555l-.169.336-1.638-.2c.537-1.009,1.232-2.506,1.732-3.739h3.712l.187-.883h-4.313l.289-1.358h1.9a7.559,7.559,0,0,0-.371-1.483h-.21a14.937,14.937,0,0,1-1.645,1.61,5.941,5.941,0,0,0-1.091-.855A12.158,12.158,0,0,0,6589.367-50l1.642.575a.4.4,0,0,1-.383.152c-.1.154-.222.323-.338.477h3.179l-.25,1.174A10.776,10.776,0,0,0,6595.1-50l1.691.547a.415.415,0,0,1-.383.154c-.107.167-.225.335-.346.5h4.134l-.278,1.3h-2.521a4.205,4.205,0,0,1,.383.966l-1.455.517h1.792l-.767,3.613H6593.1l-.177.827h3.84l.369-.028.926.126a3.069,3.069,0,0,1-.156.462c-.985,3.459-1.313,3.753-3.541,3.753-.21,0-.436,0-.669-.015a3.256,3.256,0,0,0-.139-1.527,13.1,13.1,0,0,0,1.32.056c.517,0,.7-.182,1.1-1.428h-3.348l-.742,3.5Zm-1.468-4.9h2.508l.176-.827h-2.324C6589.023-42.118,6588.892-41.838,6588.779-41.571Zm4.613-2.2h2.592l.187-.883h-2.591Zm-2-2.758-1.286.517h6.093a6.541,6.541,0,0,0-.583-1.483H6595a11.37,11.37,0,0,1-1.588,1.469,7.334,7.334,0,0,0-1.09-.868,6.758,6.758,0,0,0,.759-.6h-1.931A4.743,4.743,0,0,1,6591.388-46.527Zm-12.534,4.9a11.331,11.331,0,0,1-5.69,4.956,5.926,5.926,0,0,0-.722-1.413,9.324,9.324,0,0,0,6.1-6.288l.287-1.343h-.954A16.128,16.128,0,0,1,6575.785-43a6.733,6.733,0,0,0-1.294-.84,18.232,18.232,0,0,0,3.75-6.033l1.9.462a.4.4,0,0,1-.417.181c-.27.618-.57,1.232-.88,1.835h4.706l.273-.1,1.165.783a.6.6,0,0,1-.346.182,23,23,0,0,1-2.146,3.891c-.313-.181-.911-.517-1.284-.686a22.945,22.945,0,0,0,1.281-2.394h-1.513a.632.632,0,0,1-.42.2l-.242,1.133a5.5,5.5,0,0,0,3,6.174c-.409.407-1.049,1.106-1.406,1.54A5.9,5.9,0,0,1,6578.854-41.628Zm-15.4,3.669,1.657-7.8h2.072l-1.657,7.8Zm-9.644,0,1.055-3.053h-1.386l-1.055,3.053h-1.248l1.068-3.053H6551l.26-1.217h1.428l.732-2.13h-1.3l.258-1.216h1.473l1.039-2.983h1.219l-1.025,2.983h1.4l1.041-2.983h1.217l-1.025,2.983h1.232l-.258,1.216h-1.4l-.732,2.13h1.289l-.259,1.217H6556.1l-1.042,3.053Zm.108-4.27h1.4l.721-2.13h-1.387Zm16.556,1.665c1.145-.447,2.968-1.246,4.686-2.016l.138,1.527c-1.474.74-3.042,1.526-4.08,2a.413.413,0,0,1-.263.306Zm1.657-6.873,1.183-1.345a12.81,12.81,0,0,1,2.716,1.456l-1.272,1.5A10.818,10.818,0,0,0,6572.132-47.437Zm-6.652-.449a1.382,1.382,0,0,1,1.342-1.1.84.84,0,0,1,.886,1.1,1.374,1.374,0,0,1-1.355,1.106A.844.844,0,0,1,6565.48-47.886Z" transform="translate(-6054 796.341)" stroke="rgba(0,0,0,0)" stroke-miterlimit="10" stroke-width="1" fill="url(#linear-gradient)"/>
      <path id="合体_26" data-name="合体 26" d="M6590.247-36.67l.594-2.8a17.135,17.135,0,0,1-5.045,2.645,4.763,4.763,0,0,0-.77-1.315,16.849,16.849,0,0,0,4.646-2.031h-1.555l-.169.336-1.638-.2c.537-1.009,1.232-2.506,1.732-3.739h3.712l.187-.883h-4.313l.289-1.358h1.9a7.559,7.559,0,0,0-.371-1.483h-.21a14.937,14.937,0,0,1-1.645,1.61,5.941,5.941,0,0,0-1.091-.855A12.158,12.158,0,0,0,6589.367-50l1.642.575a.4.4,0,0,1-.383.152c-.1.154-.222.323-.338.477h3.179l-.25,1.174A10.776,10.776,0,0,0,6595.1-50l1.691.547a.415.415,0,0,1-.383.154c-.107.167-.225.335-.346.5h4.134l-.278,1.3h-2.521a4.205,4.205,0,0,1,.383.966l-1.455.517h1.792l-.767,3.613H6593.1l-.177.827h3.84l.369-.028.926.126a3.069,3.069,0,0,1-.156.462c-.985,3.459-1.313,3.753-3.541,3.753-.21,0-.436,0-.669-.015a3.256,3.256,0,0,0-.139-1.527,13.1,13.1,0,0,0,1.32.056c.517,0,.7-.182,1.1-1.428h-3.348l-.742,3.5Zm-1.468-4.9h2.508l.176-.827h-2.324C6589.023-42.118,6588.892-41.838,6588.779-41.571Zm4.613-2.2h2.592l.187-.883h-2.591Zm-2-2.758-1.286.517h6.093a6.541,6.541,0,0,0-.583-1.483H6595a11.37,11.37,0,0,1-1.588,1.469,7.334,7.334,0,0,0-1.09-.868,6.758,6.758,0,0,0,.759-.6h-1.931A4.743,4.743,0,0,1,6591.388-46.527Zm-12.534,4.9a11.331,11.331,0,0,1-5.69,4.956,5.926,5.926,0,0,0-.722-1.413,9.324,9.324,0,0,0,6.1-6.288l.287-1.343h-.954A16.128,16.128,0,0,1,6575.785-43a6.733,6.733,0,0,0-1.294-.84,18.232,18.232,0,0,0,3.75-6.033l1.9.462a.4.4,0,0,1-.417.181c-.27.618-.57,1.232-.88,1.835h4.706l.273-.1,1.165.783a.6.6,0,0,1-.346.182,23,23,0,0,1-2.146,3.891c-.313-.181-.911-.517-1.284-.686a22.945,22.945,0,0,0,1.281-2.394h-1.513a.632.632,0,0,1-.42.2l-.242,1.133a5.5,5.5,0,0,0,3,6.174c-.409.407-1.049,1.106-1.406,1.54A5.9,5.9,0,0,1,6578.854-41.628Zm-15.4,3.669,1.657-7.8h2.072l-1.657,7.8Zm-9.644,0,1.055-3.053h-1.386l-1.055,3.053h-1.248l1.068-3.053H6551l.26-1.217h1.428l.732-2.13h-1.3l.258-1.216h1.473l1.039-2.983h1.219l-1.025,2.983h1.4l1.041-2.983h1.217l-1.025,2.983h1.232l-.258,1.216h-1.4l-.732,2.13h1.289l-.259,1.217H6556.1l-1.042,3.053Zm.108-4.27h1.4l.721-2.13h-1.387Zm16.556,1.665c1.145-.447,2.968-1.246,4.686-2.016l.138,1.527c-1.474.74-3.042,1.526-4.08,2a.413.413,0,0,1-.263.306Zm1.657-6.873,1.183-1.345a12.81,12.81,0,0,1,2.716,1.456l-1.272,1.5A10.818,10.818,0,0,0,6572.132-47.437Zm-6.652-.449a1.382,1.382,0,0,1,1.342-1.1.84.84,0,0,1,.886,1.1,1.374,1.374,0,0,1-1.355,1.106A.844.844,0,0,1,6565.48-47.886Z" transform="translate(-6054 795.341)" fill="#fff" stroke="rgba(0,0,0,0)" stroke-miterlimit="10" stroke-width="1"/>
    </g>
    <g id="グループ_2223" data-name="グループ 2223" transform="translate(1.045 -24.342)">
      <path id="合体_27" data-name="合体 27" d="M6597.646-38.743c2.582-.279,4.412-1.121,4.758-2.744a1.661,1.661,0,0,0-1.233-2.045,14.125,14.125,0,0,1-3.422,3.64,2.691,2.691,0,0,0,.1.477l-1.64.924a2.82,2.82,0,0,1-.1-.462,5.483,5.483,0,0,1-2.394.645c-1.233,0-1.877-.784-1.6-2.086.41-1.932,2.221-3.459,4.38-4.269.1-.6.233-1.219.369-1.862-1.057.028-2.2.055-2.754.042l.264-1.638c.643.013,1.819.013,2.854.013.156-.6.319-1.3.472-1.889l2.163.168a.484.484,0,0,1-.437.279c-.128.407-.269.939-.407,1.387a34.928,34.928,0,0,0,5.126-.59l-.206,1.7a41.731,41.731,0,0,1-5.34.475c-.117.49-.234.965-.331,1.427a8.362,8.362,0,0,1,2.14-.181,4.041,4.041,0,0,0,.246-.63l1.63.434c-.073.153-.148.307-.209.462a2.811,2.811,0,0,1,2.174,3.542c-.475,2.241-2.477,3.753-6.175,4.2A5.141,5.141,0,0,0,6597.646-38.743Zm-3.768-1.975c-.171.8.437.771.621.756a3.423,3.423,0,0,0,1.515-.532,20.368,20.368,0,0,1,.223-2.562A3.829,3.829,0,0,0,6593.878-40.718Zm4.075-2.9a18.109,18.109,0,0,0-.222,1.905,9.989,9.989,0,0,0,1.819-2.1.926.926,0,0,0-.136-.008A6.957,6.957,0,0,0,6597.953-43.617Zm-31.691,5.308a11.3,11.3,0,0,0,.668-1.429,4.323,4.323,0,0,0,1.924.63,1.013,1.013,0,0,0,1.134-.854,1.955,1.955,0,0,0-.923-1.847,2,2,0,0,1-.877-2.072,4.036,4.036,0,0,1,.774-1.527l1.485.462a2.513,2.513,0,0,0-.5.91c-.1.447.138.854.815,1.372a2.569,2.569,0,0,1,1.057,2.8,3.032,3.032,0,0,1-3.023,2.352A5.321,5.321,0,0,1,6566.262-38.309ZM6580-37.54l.99-4.592a17.194,17.194,0,0,1-2.736,2.59l-.458-1.666a17.273,17.273,0,0,0,3.8-3.653c.08-.309.146-.618.229-.954a17.952,17.952,0,0,1-2.445.239l.339-1.723a20.754,20.754,0,0,0,2.54-.154c.062-.224.6-2.434.614-2.492l2.25.154a.536.536,0,0,1-.454.294c-.2.588-.409,1.259-.562,1.779l.55.253A13.674,13.674,0,0,0,6583.5-45.7a8.162,8.162,0,0,1,4.322-2.015c1.416,0,2.022.965,1.655,2.686-.033.169-.085.337-.135.505-.625,2.085-.776,2.6-.993,3.625-.153.714-.156,1.065.291,1.065a5.074,5.074,0,0,0,1.935-.939c-.1.462-.226,1.6-.247,1.962a5.418,5.418,0,0,1-2.406.839c-1.513,0-1.839-.839-1.46-2.618.038-.183.3-1.372.98-3.626.046-.154.095-.307.121-.434.181-.854-.044-1.246-.562-1.246-.827,0-2.37.812-3.979,2.241-.58,2.729-1.145,5.391-1.286,6.117Zm27.123-5.558c.078-.5.167-1.05.289-1.623a36.48,36.48,0,0,1,1.1-4.005l2.208.42a.545.545,0,0,1-.416.239,24.745,24.745,0,0,0-1.183,3.849c-.654,3.08.008,4.186.791,4.186.477,0,1.364-1.4,1.917-2.562a6.683,6.683,0,0,0,1.192,1.12c-1.159,2.3-2.3,3.361-3.585,3.361C6607.268-38.113,6606.778-40.816,6607.123-43.1Zm-53.312,4.746,1.055-3.05h-1.387l-1.055,3.05h-1.246l1.068-3.05H6551l.261-1.219h1.428l.731-2.128h-1.3l.258-1.218h1.472l1.038-2.982h1.22l-1.025,2.982h1.4l1.04-2.982h1.219l-1.026,2.982h1.234l-.259,1.218h-1.4l-.733,2.128h1.288l-.259,1.219H6556.1l-1.042,3.05Zm.108-4.269h1.4l.72-2.128h-1.387Zm9.24,2.366a40.31,40.31,0,0,0,3.854-2.577l.6,1.317c-1.066.867-2.585,1.945-3.342,2.477a.639.639,0,0,1-.292.449Zm8.824-2.505,1.279-1.2a4.824,4.824,0,0,1,2.756,3.975l-1.847.91A4.431,4.431,0,0,0,6571.983-42.761Zm42.9-3.824,1.387-1.314a6.011,6.011,0,0,1,2.828,5.739l-1.98.616C6617.232-44.064,6616.386-45.562,6614.881-46.585Zm-45.22.324a7.053,7.053,0,0,1,1.424-.967,11.48,11.48,0,0,1-2.864-1.287l1.095-1.331a15.739,15.739,0,0,0,5.174,1.555l-.84,1.651a2.1,2.1,0,0,0-.288-.028,3.96,3.96,0,0,0-2.271.925Z" transform="translate(-6136 796.341)" stroke="rgba(0,0,0,0)" stroke-miterlimit="10" stroke-width="1" fill="url(#linear-gradient-2)"/>
      <path id="合体_25" data-name="合体 25" d="M6597.646-38.743c2.582-.279,4.412-1.121,4.758-2.744a1.661,1.661,0,0,0-1.233-2.045,14.125,14.125,0,0,1-3.422,3.64,2.691,2.691,0,0,0,.1.477l-1.64.924a2.82,2.82,0,0,1-.1-.462,5.483,5.483,0,0,1-2.394.645c-1.233,0-1.877-.784-1.6-2.086.41-1.932,2.221-3.459,4.38-4.269.1-.6.233-1.219.369-1.862-1.057.028-2.2.055-2.754.042l.264-1.638c.643.013,1.819.013,2.854.013.156-.6.319-1.3.472-1.889l2.163.168a.484.484,0,0,1-.437.279c-.128.407-.269.939-.407,1.387a34.928,34.928,0,0,0,5.126-.59l-.206,1.7a41.731,41.731,0,0,1-5.34.475c-.117.49-.234.965-.331,1.427a8.362,8.362,0,0,1,2.14-.181,4.041,4.041,0,0,0,.246-.63l1.63.434c-.073.153-.148.307-.209.462a2.811,2.811,0,0,1,2.174,3.542c-.475,2.241-2.477,3.753-6.175,4.2A5.141,5.141,0,0,0,6597.646-38.743Zm-3.768-1.975c-.171.8.437.771.621.756a3.423,3.423,0,0,0,1.515-.532,20.368,20.368,0,0,1,.223-2.562A3.829,3.829,0,0,0,6593.878-40.718Zm4.075-2.9a18.109,18.109,0,0,0-.222,1.905,9.989,9.989,0,0,0,1.819-2.1.926.926,0,0,0-.136-.008A6.957,6.957,0,0,0,6597.953-43.617Zm-31.691,5.308a11.3,11.3,0,0,0,.668-1.429,4.323,4.323,0,0,0,1.924.63,1.013,1.013,0,0,0,1.134-.854,1.955,1.955,0,0,0-.923-1.847,2,2,0,0,1-.877-2.072,4.036,4.036,0,0,1,.774-1.527l1.485.462a2.513,2.513,0,0,0-.5.91c-.1.447.138.854.815,1.372a2.569,2.569,0,0,1,1.057,2.8,3.032,3.032,0,0,1-3.023,2.352A5.321,5.321,0,0,1,6566.262-38.309ZM6580-37.54l.99-4.592a17.194,17.194,0,0,1-2.736,2.59l-.458-1.666a17.273,17.273,0,0,0,3.8-3.653c.08-.309.146-.618.229-.954a17.952,17.952,0,0,1-2.445.239l.339-1.723a20.754,20.754,0,0,0,2.54-.154c.062-.224.6-2.434.614-2.492l2.25.154a.536.536,0,0,1-.454.294c-.2.588-.409,1.259-.562,1.779l.55.253A13.674,13.674,0,0,0,6583.5-45.7a8.162,8.162,0,0,1,4.322-2.015c1.416,0,2.022.965,1.655,2.686-.033.169-.085.337-.135.505-.625,2.085-.776,2.6-.993,3.625-.153.714-.156,1.065.291,1.065a5.074,5.074,0,0,0,1.935-.939c-.1.462-.226,1.6-.247,1.962a5.418,5.418,0,0,1-2.406.839c-1.513,0-1.839-.839-1.46-2.618.038-.183.3-1.372.98-3.626.046-.154.095-.307.121-.434.181-.854-.044-1.246-.562-1.246-.827,0-2.37.812-3.979,2.241-.58,2.729-1.145,5.391-1.286,6.117Zm27.123-5.558c.078-.5.167-1.05.289-1.623a36.48,36.48,0,0,1,1.1-4.005l2.208.42a.545.545,0,0,1-.416.239,24.745,24.745,0,0,0-1.183,3.849c-.654,3.08.008,4.186.791,4.186.477,0,1.364-1.4,1.917-2.562a6.683,6.683,0,0,0,1.192,1.12c-1.159,2.3-2.3,3.361-3.585,3.361C6607.268-38.113,6606.778-40.816,6607.123-43.1Zm-53.312,4.746,1.055-3.05h-1.387l-1.055,3.05h-1.246l1.068-3.05H6551l.261-1.219h1.428l.731-2.128h-1.3l.258-1.218h1.472l1.038-2.982h1.22l-1.025,2.982h1.4l1.04-2.982h1.219l-1.026,2.982h1.234l-.259,1.218h-1.4l-.733,2.128h1.288l-.259,1.219H6556.1l-1.042,3.05Zm.108-4.269h1.4l.72-2.128h-1.387Zm9.24,2.366a40.31,40.31,0,0,0,3.854-2.577l.6,1.317c-1.066.867-2.585,1.945-3.342,2.477a.639.639,0,0,1-.292.449Zm8.824-2.505,1.279-1.2a4.824,4.824,0,0,1,2.756,3.975l-1.847.91A4.431,4.431,0,0,0,6571.983-42.761Zm42.9-3.824,1.387-1.314a6.011,6.011,0,0,1,2.828,5.739l-1.98.616C6617.232-44.064,6616.386-45.562,6614.881-46.585Zm-45.22.324a7.053,7.053,0,0,1,1.424-.967,11.48,11.48,0,0,1-2.864-1.287l1.095-1.331a15.739,15.739,0,0,0,5.174,1.555l-.84,1.651a2.1,2.1,0,0,0-.288-.028,3.96,3.96,0,0,0-2.271.925Z" transform="translate(-6136 795.341)" fill="#fff" stroke="rgba(0,0,0,0)" stroke-miterlimit="10" stroke-width="1"/>
    </g>
    <g id="グループ_2188" data-name="グループ 2188" transform="translate(0.475 1)">
      <g id="グループ_1627" data-name="グループ 1627" transform="translate(332.441 721)">
        <path id="合体_16" data-name="合体 16" d="M1698.505-781.745c2.581-.28,4.413-1.12,4.757-2.743a1.661,1.661,0,0,0-1.233-2.045,14.125,14.125,0,0,1-3.421,3.641,2.535,2.535,0,0,0,.1.476l-1.64.923a2.844,2.844,0,0,1-.1-.462,5.469,5.469,0,0,1-2.393.644c-1.233,0-1.878-.784-1.6-2.086.411-1.932,2.221-3.458,4.381-4.271.1-.6.232-1.218.369-1.861-1.057.028-2.2.056-2.755.041l.264-1.638c.642.014,1.819.014,2.855.014.156-.6.319-1.3.472-1.89l2.164.167a.491.491,0,0,1-.438.281c-.128.406-.268.938-.406,1.386a34.841,34.841,0,0,0,5.126-.589l-.207,1.694a41.263,41.263,0,0,1-5.34.476c-.117.49-.234.967-.331,1.428a8.359,8.359,0,0,1,2.14-.182,4.08,4.08,0,0,0,.246-.63l1.63.434c-.074.154-.149.308-.21.462a2.813,2.813,0,0,1,2.174,3.542c-.475,2.24-2.478,3.752-6.174,4.2A5.161,5.161,0,0,0,1698.505-781.745Zm-3.768-1.974c-.17.8.438.77.623.756a3.434,3.434,0,0,0,1.515-.532,20.149,20.149,0,0,1,.221-2.562A3.836,3.836,0,0,0,1694.737-783.718Zm4.076-2.9a17.808,17.808,0,0,0-.223,1.9,9.981,9.981,0,0,0,1.819-2.1.99.99,0,0,0-.133-.007A6.893,6.893,0,0,0,1698.813-786.616Zm23.263,3.893c.3-1.415,1.978-2.255,3.673-2.255a5.411,5.411,0,0,1,1.061.084c.089-.419.162-.9.255-1.4-.381.013-.773.013-1.1.013-1.9-.028-3.029-.309-2.795-1.344.125-.588.671-1.12,1.825-1.737l1.06.617c-.553.224-.956.476-1,.686s.11.336,1.51.336c.239,0,.492,0,.761-.014l.338-1.987c-.437.013-.928.013-1.376.013-.966,0-2.375-.027-3.243-.027l.333-1.568c.843.056,2.187.056,3.237.056.449,0,.914-.013,1.337-.028.114-.6.246-1.288.335-1.709l2.165.1c-.047.154-.194.252-.427.294l-.267,1.26a32.009,32.009,0,0,0,4.346-.476l-.178,1.624a39.442,39.442,0,0,1-4.5.42c-.14.658-.264,1.3-.385,1.946a31.127,31.127,0,0,0,3.63-.476l-.189,1.554a28.341,28.341,0,0,1-3.729.406c-.132.686-.224,1.316-.3,1.82a10.584,10.584,0,0,1,3.363,1.974l-1.389,1.526a8.629,8.629,0,0,0-2.277-1.805l-.087.406c-.272,1.147-1.377,1.93-3.338,1.93C1722.86-780.485,1721.793-781.394,1722.076-782.724Zm1.547-.029c-.12.56.505.854,1.415.854a1.238,1.238,0,0,0,1.407-1.021l.1-.546a4.652,4.652,0,0,0-1.205-.2C1724.474-783.662,1723.74-783.3,1723.623-782.753ZM1735.7-786.1c.078-.5.167-1.05.289-1.624a36.174,36.174,0,0,1,1.1-4.005l2.207.421a.539.539,0,0,1-.415.238,24.772,24.772,0,0,0-1.183,3.85c-.655,3.08.007,4.186.791,4.186.476,0,1.363-1.4,1.917-2.561a6.713,6.713,0,0,0,1.191,1.12c-1.159,2.3-2.3,3.36-3.585,3.36C1735.846-781.115,1735.356-783.816,1735.7-786.1Zm-27.719,0c.079-.5.166-1.05.288-1.624a36.157,36.157,0,0,1,1.105-4.005l2.206.421a.538.538,0,0,1-.414.238,24.772,24.772,0,0,0-1.183,3.85c-.654,3.08.007,4.186.79,4.186.476,0,1.364-1.4,1.917-2.561a6.71,6.71,0,0,0,1.191,1.12c-1.159,2.3-2.3,3.36-3.584,3.36C1708.127-781.115,1707.636-783.816,1707.982-786.1Zm-24.611,4.746,1.055-3.051h-1.387l-1.055,3.051h-1.246l1.068-3.051h-1.247l.26-1.219h1.427l.733-2.129h-1.3l.258-1.218h1.472l1.039-2.983h1.219l-1.026,2.983h1.4l1.04-2.983h1.219l-1.026,2.983h1.233l-.259,1.218h-1.4l-.732,2.129h1.288l-.259,1.219h-1.484l-1.04,3.051Zm.108-4.27h1.4l.72-2.129h-1.387Zm59.981-3.964,1.386-1.315a6.011,6.011,0,0,1,2.828,5.74l-1.98.616C1745.81-787.064,1744.965-788.562,1743.46-789.585Zm-27.72,0,1.386-1.315a6.013,6.013,0,0,1,2.829,5.74l-1.98.616C1718.09-787.064,1717.246-788.562,1715.74-789.585Z" transform="translate(-1680.559 793)" stroke="rgba(0,0,0,0)" stroke-miterlimit="10" stroke-width="1" fill="url(#linear-gradient-10)"/>
      </g>
      <g id="グループ_1627-2" data-name="グループ 1627" transform="translate(332.203 720)">
        <path id="パス_64239" data-name="パス 64239" d="M3.653,5.25H5.04L4.32,7.378H2.92ZM6.52,1.05,5.48,4.032H4.08L5.106,1.05H3.887L2.848,4.032H1.376L1.118,5.25h1.3L1.688,7.378H.26L0,8.6H1.247L.178,11.648H1.425L2.48,8.6H3.867L2.812,11.648H4.058L5.1,8.6H6.583l.259-1.219H5.554L6.286,5.25h1.4l.259-1.218H6.713L7.739,1.05Z" fill="#fff"/>
        <g id="グループ_1626" data-name="グループ 1626">
          <g id="グループ_1625" data-name="グループ 1625" clip-path="url(#clip-path-6)">
            <path id="パス_64240" data-name="パス 64240" d="M22.583,4.466c-.074.154-.149.308-.21.462A2.812,2.812,0,0,1,24.548,8.47c-.476,2.24-2.478,3.752-6.174,4.2a5.166,5.166,0,0,0-.428-1.414c2.581-.28,4.413-1.12,4.758-2.744a1.661,1.661,0,0,0-1.233-2.044,14.146,14.146,0,0,1-3.421,3.64,2.549,2.549,0,0,0,.1.476l-1.64.924a2.937,2.937,0,0,1-.1-.462,5.474,5.474,0,0,1-2.393.644c-1.233,0-1.878-.784-1.6-2.086.411-1.932,2.221-3.458,4.381-4.27.1-.6.232-1.218.369-1.862-1.057.028-2.2.056-2.755.042l.264-1.638c.642.014,1.819.014,2.855.014.156-.6.318-1.3.471-1.89l2.164.168a.491.491,0,0,1-.438.28c-.128.406-.269.938-.406,1.386a34.9,34.9,0,0,0,5.126-.588L24.238,2.94a41.447,41.447,0,0,1-5.34.476c-.117.49-.234.966-.331,1.428a8.392,8.392,0,0,1,2.14-.182,4,4,0,0,0,.246-.63Zm-6.268,5.04a20.088,20.088,0,0,1,.222-2.562,3.835,3.835,0,0,0-2.359,2.338c-.17.8.438.77.623.756a3.44,3.44,0,0,0,1.514-.532M19.85,6.188a6,6,0,0,0-1.6.2,17.673,17.673,0,0,0-.223,1.9,10,10,0,0,0,1.819-2.1" fill="#fff"/>
            <path id="パス_64241" data-name="パス 64241" d="M31.022,1.694a.539.539,0,0,1-.414.238,24.67,24.67,0,0,0-1.182,3.85c-.655,3.08.007,4.186.79,4.186.476,0,1.364-1.4,1.917-2.562a6.687,6.687,0,0,0,1.191,1.12c-1.16,2.3-2.3,3.36-3.584,3.36-2.172,0-2.663-2.7-2.317-4.984.079-.5.166-1.05.288-1.624a36.351,36.351,0,0,1,1.1-4Zm6.394,6.762c.115-2.52-.729-4.018-2.235-5.041L36.567,2.1A6.014,6.014,0,0,1,39.4,7.84Z" fill="#fff"/>
            <path id="パス_64242" data-name="パス 64242" d="M42.823,1.694c.843.056,2.187.056,3.237.056.449,0,.914-.014,1.337-.028.114-.6.246-1.288.335-1.709l2.165.1c-.047.154-.194.252-.427.294L49.2,1.666a31.9,31.9,0,0,0,4.346-.476L53.37,2.814a39.533,39.533,0,0,1-4.5.42c-.14.658-.263,1.3-.385,1.946a31.177,31.177,0,0,0,3.63-.476l-.189,1.554a28.358,28.358,0,0,1-3.729.406c-.132.686-.224,1.316-.3,1.82a10.576,10.576,0,0,1,3.363,1.973l-1.389,1.527a8.625,8.625,0,0,0-2.277-1.806l-.087.406c-.272,1.148-1.377,1.931-3.338,1.931-1.864,0-2.931-.909-2.648-2.239.3-1.414,1.978-2.254,3.673-2.254a5.348,5.348,0,0,1,1.061.084c.089-.42.162-.9.255-1.4-.381.014-.773.014-1.1.014-1.9-.028-3.03-.309-2.795-1.344.125-.588.672-1.12,1.825-1.737l1.061.617c-.553.224-.956.476-1,.686s.11.336,1.51.336c.239,0,.492,0,.761-.015l.338-1.987c-.437.013-.928.013-1.376.013-.966,0-2.375-.027-3.243-.027Zm3.166,7.84a4.633,4.633,0,0,0-1.2-.2c-.869,0-1.6.364-1.72.91s.505.854,1.415.854a1.239,1.239,0,0,0,1.407-1.022Z" fill="#fff"/>
            <path id="パス_64243" data-name="パス 64243" d="M58.742,1.694a.541.541,0,0,1-.415.238,24.777,24.777,0,0,0-1.182,3.85c-.655,3.08.007,4.186.791,4.186.476,0,1.363-1.4,1.917-2.562a6.687,6.687,0,0,0,1.191,1.12c-1.16,2.3-2.3,3.36-3.585,3.36-2.172,0-2.662-2.7-2.317-4.984.079-.5.167-1.05.289-1.624a36.341,36.341,0,0,1,1.1-4Zm6.393,6.762c.116-2.52-.729-4.018-2.234-5.041L64.287,2.1a6.011,6.011,0,0,1,2.828,5.74Z" fill="#fff"/>
          </g>
        </g>
      </g>
    </g>
    <g id="グループ_2187" data-name="グループ 2187" transform="translate(0 1)">
      <g id="グループ_1624" data-name="グループ 1624" transform="translate(203.743 720)">
        <path id="合体_15" data-name="合体 15" d="M1915.233-778.769l1.152-5.418a43.855,43.855,0,0,1-4.559,2.337,4.328,4.328,0,0,0-.622-1.092,35.426,35.426,0,0,0,9.461-5.768l1.29,1.05a.5.5,0,0,1-.441.1c-1.048.854-2.369,1.721-3.506,2.463.143.057.26.1.347.14a.522.522,0,0,1-.365.209l-1.271,5.98Zm-24.361,0,1.152-5.418a43.855,43.855,0,0,1-4.559,2.337,4.328,4.328,0,0,0-.622-1.092,35.41,35.41,0,0,0,9.461-5.768l1.292,1.05a.506.506,0,0,1-.442.1c-1.049.854-2.37,1.721-3.507,2.463.143.057.26.1.348.14a.525.525,0,0,1-.366.209l-1.271,5.98Zm-42.971-1.176a8.14,8.14,0,0,0,4.8-5.208h-4.9l.348-1.638h11.066l-.348,1.638h-4.245l.263.085a.393.393,0,0,1-.362.181,10.594,10.594,0,0,1-5.5,6.1A8.288,8.288,0,0,0,1847.9-779.945Zm-9.235,1.106,1.4-6.58a54.322,54.322,0,0,1-5.208,2.618,4.791,4.791,0,0,0-.775-1.358,42.435,42.435,0,0,0,11.494-7.028l1.492,1.288a.576.576,0,0,1-.482.154,50.835,50.835,0,0,1-4.455,3.178c.143.042.283.112.414.154a.572.572,0,0,1-.463.266l-1.552,7.308Zm60.892-1.219a7.778,7.778,0,0,0,4.787-5.124h-5l.348-1.638h11.319l-.349,1.638-4.4.015.262.084a.438.438,0,0,1-.361.181,9.955,9.955,0,0,1-5.5,6.048A9.6,9.6,0,0,0,1899.559-780.058Zm-24.36,0a7.775,7.775,0,0,0,4.787-5.124h-5l.347-1.638h11.319l-.349,1.638-4.4.015.262.084a.436.436,0,0,1-.361.181,9.955,9.955,0,0,1-5.5,6.048A9.513,9.513,0,0,0,1875.2-780.058Zm-53.7.041c2.965-1.427,4.647-4.2,5.509-7.335l2.233.238a.531.531,0,0,1-.441.294c-1,3.066-2.837,6.229-6.013,7.924A9.641,9.641,0,0,0,1821.5-780.017Zm39.353-.782a19.236,19.236,0,0,0,11.3-8.05,7.944,7.944,0,0,0,1.419,1.036,21.8,21.8,0,0,1-11.516,8.442.654.654,0,0,1-.316.365Zm-48.782,1.09,1.055-3.052h-1.387l-1.055,3.052h-1.247l1.069-3.052h-1.247l.26-1.218h1.428l.732-2.128h-1.3l.257-1.217h1.472l1.039-2.983h1.219l-1.026,2.983h1.4l1.04-2.983H1817l-1.026,2.983h1.233l-.258,1.217h-1.4l-.732,2.128h1.288l-.259,1.218h-1.484l-1.041,3.052Zm.108-4.27h1.4l.721-2.128h-1.388Zm17.383-2.072a10.926,10.926,0,0,0,2.659-2.758h-9.062l.354-1.666H1833.6l.223-.126,1.348.771a.544.544,0,0,1-.325.21,19.956,19.956,0,0,1-3.916,4.521A7.668,7.668,0,0,0,1829.56-786.05Zm32.63-2.7,1.151-1.526a14.246,14.246,0,0,1,3.711,1.848l-1.263,1.6A15.817,15.817,0,0,0,1862.19-788.752Zm-12.3-.154.348-1.638h7.4a3.551,3.551,0,0,0-.388-.545l.922-.589a8.206,8.206,0,0,1,1.119,1.989l-.97.616a5.831,5.831,0,0,0-.466-1.107l-.271,1.274Zm51.567-.154.349-1.638h8.6l-.347,1.638Zm-24.36,0,.349-1.638h8.6l-.348,1.638Zm-17.8-2.367.878-.572a8.994,8.994,0,0,1,1.138,1.959l-.951.589A8.194,8.194,0,0,0,1859.293-791.427Z" transform="translate(-1809.257 792)" stroke="rgba(0,0,0,0)" stroke-miterlimit="10" stroke-width="1" fill="url(#linear-gradient-11)"/>
      </g>
      <g id="グループ_1624-2" data-name="グループ 1624" transform="translate(203.505 719)">
        <path id="パス_64230" data-name="パス 64230" d="M3.653,5.893H5.04L4.32,8.021H2.92Zm2.867-4.2L5.48,4.676H4.08L5.106,1.693H3.887L2.848,4.676H1.376L1.118,5.893h1.3L1.688,8.021H.26L0,9.239H1.247L.178,12.291H1.425L2.48,9.239H3.867L2.812,12.291H4.058L5.1,9.239H6.583l.259-1.218H5.554l.732-2.128h1.4l.259-1.217H6.713L7.739,1.693Z" fill="#fff"/>
        <g id="グループ_1623" data-name="グループ 1623">
          <g id="グループ_1622" data-name="グループ 1622" clip-path="url(#clip-path-7)">
            <path id="パス_64231" data-name="パス 64231" d="M19.983,4.886a.532.532,0,0,1-.441.294c-1,3.066-2.837,6.229-6.013,7.924a9.62,9.62,0,0,0-1.288-1.121c2.965-1.427,4.647-4.2,5.509-7.335ZM25.911,2.17a.544.544,0,0,1-.325.21A19.99,19.99,0,0,1,21.67,6.9,7.65,7.65,0,0,0,20.3,5.949a10.936,10.936,0,0,0,2.659-2.758H13.9l.354-1.666H24.339l.223-.126Z" fill="#fff"/>
            <path id="パス_64232" data-name="パス 64232" d="M37.812,2.1a.575.575,0,0,1-.482.154,50.853,50.853,0,0,1-4.455,3.178c.143.042.282.112.414.154a.573.573,0,0,1-.463.266L31.274,13.16H29.41l1.4-6.58A54.121,54.121,0,0,1,25.6,9.2a4.82,4.82,0,0,0-.775-1.358A42.42,42.42,0,0,0,36.32.812Z" fill="#fff"/>
            <path id="パス_64233" data-name="パス 64233" d="M38.547,6.846,38.9,5.208H49.961l-.348,1.638H45.369l.262.084a.391.391,0,0,1-.361.181,10.6,10.6,0,0,1-5.5,6.1,8.376,8.376,0,0,0-1.125-1.162,8.142,8.142,0,0,0,4.8-5.208ZM49.06,2.926a5.792,5.792,0,0,0-.466-1.107l-.271,1.275H40.634l.348-1.638h7.4A3.491,3.491,0,0,0,47.989.91l.923-.589A8.23,8.23,0,0,1,50.031,2.31ZM51.1,2.548A8.178,8.178,0,0,0,50.036.573L50.914,0a8.981,8.981,0,0,1,1.138,1.96Z" fill="#fff"/>
            <path id="パス_64234" data-name="パス 64234" d="M51.594,11.2A19.236,19.236,0,0,0,62.9,3.15a7.911,7.911,0,0,0,1.419,1.036A21.8,21.8,0,0,1,52.8,12.628a.66.66,0,0,1-.316.365Zm2.49-9.479A14.226,14.226,0,0,1,57.795,3.57l-1.263,1.6a15.82,15.82,0,0,0-3.6-1.918Z" fill="#fff"/>
            <path id="パス_64235" data-name="パス 64235" d="M77.046,6.818l-4.4.015.262.084a.437.437,0,0,1-.361.181,9.955,9.955,0,0,1-5.5,6.048,9.427,9.427,0,0,0-1.1-1.2,7.778,7.778,0,0,0,4.787-5.124h-5l.348-1.638H77.395Zm-.6-3.878h-8.6L68.19,1.3h8.6Z" fill="#fff"/>
            <path id="パス_64236" data-name="パス 64236" d="M88.338,4.34a.506.506,0,0,1-.442.1c-1.049.854-2.369,1.721-3.507,2.464.143.056.26.1.348.14a.524.524,0,0,1-.366.209L83.1,13.23H81.615l1.152-5.418a43.906,43.906,0,0,1-4.559,2.338,4.323,4.323,0,0,0-.622-1.092A35.418,35.418,0,0,0,87.047,3.29Z" fill="#fff"/>
            <path id="パス_64237" data-name="パス 64237" d="M101.406,6.818,97,6.833l.262.084a.437.437,0,0,1-.361.181,9.955,9.955,0,0,1-5.5,6.048,9.427,9.427,0,0,0-1.1-1.2,7.778,7.778,0,0,0,4.787-5.124h-5l.348-1.638h11.319Zm-.6-3.878H92.2L92.55,1.3h8.6Z" fill="#fff"/>
            <path id="パス_64238" data-name="パス 64238" d="M112.7,4.34a.5.5,0,0,1-.441.1c-1.049.854-2.369,1.721-3.507,2.464.143.056.26.1.348.14a.524.524,0,0,1-.366.209l-1.271,5.979h-1.485l1.152-5.418a43.906,43.906,0,0,1-4.559,2.338,4.323,4.323,0,0,0-.622-1.092,35.418,35.418,0,0,0,9.461-5.768Z" fill="#fff"/>
          </g>
        </g>
      </g>
    </g>
    <g id="グループ_2195" data-name="グループ 2195" transform="translate(0 1)">
      <g id="グループ_1621" data-name="グループ 1621" transform="translate(95 721)">
        <path id="合体_14" data-name="合体 14" d="M2001.666-786.517l1.345-6.329h2.074l-1.384,6.51c-.4,1.89.139,2.716,1.2,2.716,1.12,0,1.976-.8,2.384-2.716l1.383-6.51h2.074l-1.342,6.314c-.671,3.15-2.481,4.62-4.918,4.62S2000.993-783.354,2001.666-786.517Zm-11.234-.9c.684-3.22,2.966-5.586,5.781-5.586,2.984,0,3.9,2.548,3.29,5.418-.8,3.752-3.109,5.67-5.785,5.67C1990.873-781.912,1989.769-784.292,1990.432-787.414Zm2.18-.042c-.449,2.114.008,3.85,1.535,3.85s2.7-1.723,3.166-3.893c.419-1.974.068-3.808-1.516-3.808C1994.173-791.306,1993.031-789.43,1992.612-787.456Zm-44.417.042c.684-3.22,2.966-5.586,5.781-5.586,2.984,0,3.9,2.548,3.289,5.418-.8,3.752-3.109,5.67-5.785,5.67C1948.636-781.912,1947.532-784.292,1948.195-787.414Zm2.18-.042c-.449,2.114.008,3.85,1.535,3.85s2.7-1.723,3.166-3.893c.419-1.974.068-3.808-1.516-3.808C1951.936-791.306,1950.794-789.43,1950.375-787.456Zm32.3,5.39.932-4.382-1.7-6.384h2.31l.5,2.646c.144.769.253,1.442.348,2.183h.027c.362-.714.778-1.414,1.251-2.2l1.6-2.632h2.283l-4.535,6.313-.946,4.452Zm-14.392,0,2.288-10.766h5.8L1976-791.1h-3.725l-.553,2.6h3.515l-.36,1.694h-3.515l-.637,3h3.95l-.369,1.736Zm-7.588,0-.835-10.766h2.269l.207,4.76c.052,1.273.1,2.561.049,3.864h.041c.512-1.288,1.113-2.6,1.718-3.864l2.257-4.76h2.228l-5.566,10.766Zm-21.252,0,2.288-10.766h2.073l-1.915,9.015h3.851l-.373,1.751Zm-8.876,0,2.288-10.766h2.074l-2.29,10.766Zm-9.755,0,1.055-3.051h-1.387l-1.056,3.051h-1.247l1.069-3.051H1918l.26-1.219h1.428l.732-2.128h-1.3l.258-1.217h1.472l1.039-2.984h1.219l-1.026,2.984h1.4l1.04-2.984h1.219l-1.026,2.984h1.233l-.259,1.217h-1.4l-.733,2.128h1.288l-.258,1.219H1923.1l-1.041,3.051Zm.108-4.27h1.4l.72-2.128h-1.387Z" transform="translate(-1918 793)" stroke="rgba(0,0,0,0)" stroke-miterlimit="10" stroke-width="1" fill="url(#linear-gradient-4)"/>
      </g>
      <path id="合体_24" data-name="合体 24" d="M6634.429-43.42l1.344-6.329h2.074l-1.384,6.511c-.4,1.889.137,2.716,1.2,2.716,1.121,0,1.978-.8,2.384-2.716l1.384-6.511h2.074l-1.342,6.314c-.67,3.15-2.481,4.62-4.919,4.62C6634.822-38.815,6633.755-40.255,6634.429-43.42Zm-8.038,4.605c-2.778-.048-3.852-2.413-3.194-5.5.684-3.22,2.964-5.585,5.78-5.585,2.984,0,3.9,2.548,3.288,5.417-.787,3.708-3.055,5.624-5.689,5.669Zm-1.015-5.542c-.45,2.114.008,3.85,1.534,3.85,1.542,0,2.706-1.722,3.166-3.893.42-1.972.068-3.808-1.514-3.808C6626.936-48.208,6625.794-46.331,6625.375-44.357Zm-41.223,5.542c-2.778-.048-3.852-2.413-3.2-5.5.686-3.22,2.966-5.585,5.782-5.585,2.983,0,3.9,2.548,3.288,5.417-.787,3.708-3.055,5.624-5.689,5.669Zm-1.015-5.542c-.45,2.114.008,3.85,1.534,3.85,1.542,0,2.706-1.722,3.167-3.893.42-1.972.068-3.808-1.514-3.808C6584.7-48.208,6583.556-46.331,6583.138-44.357Zm32.3,5.39.929-4.383-1.694-6.384h2.309l.5,2.646c.143.77.251,1.442.348,2.184h.027c.36-.714.777-1.414,1.25-2.2l1.6-2.633h2.283l-4.534,6.314-.947,4.453Zm-21.981,0-.833-10.767h2.267l.208,4.76c.052,1.274.1,2.563.047,3.865h.043c.512-1.289,1.112-2.6,1.717-3.865l2.256-4.76h2.229l-5.565,10.767Zm7.589,0,2.288-10.766h5.8L6608.762-48h-3.725l-.554,2.6H6608l-.358,1.694h-3.516l-.637,3h3.95l-.369,1.736Zm-28.841,0,2.288-10.766h2.074l-1.916,9.017h3.852l-.374,1.749Zm-8.75,0,1.657-7.8h2.073l-1.658,7.8Zm-9.644,0,1.055-3.051h-1.387l-1.055,3.051h-1.246l1.069-3.051H6551l.26-1.219h1.427l.732-2.129h-1.3l.258-1.215h1.472l1.039-2.984h1.219l-1.025,2.984h1.4l1.039-2.984h1.219l-1.025,2.984h1.232l-.258,1.215h-1.4l-.732,2.129h1.287l-.258,1.219H6556.1l-1.041,3.051Zm.108-4.27h1.4l.72-2.129h-1.387Zm11.559-5.655A1.384,1.384,0,0,1,6566.821-50a.839.839,0,0,1,.885,1.105,1.373,1.373,0,0,1-1.354,1.105A.845.845,0,0,1,6565.479-48.894Z" transform="translate(-6456 771)" stroke="rgba(0,0,0,0)" stroke-miterlimit="10" stroke-width="1" fill="url(#linear-gradient-3)"/>
      <g id="グループ_2185" data-name="グループ 2185" transform="translate(95 720)">
        <path id="パス_65022" data-name="パス 65022" d="M3.653,4.633H5.04L4.32,6.762H2.92ZM6.52.433,5.48,3.416H4.08L5.106.433H3.887L2.848,3.416H1.376L1.118,4.633h1.3L1.688,6.762H.26L0,7.98H1.247L.178,11.031H1.425L2.48,7.98H3.867L2.812,11.031H4.058L5.1,7.98H6.583l.259-1.218H5.554l.732-2.129h1.4l.259-1.217H6.713L7.739.433Z" transform="translate(-1)" fill="#fff"/>
        <g id="グループ_2184" data-name="グループ 2184">
          <g id="グループ_2183" data-name="グループ 2183" clip-path="url(#clip-path-8)">
            <path id="パス_65023" data-name="パス 65023" d="M14.528,11.031H12.455l1.657-7.8h2.073Zm.824-8.82a.843.843,0,0,1-.872-1.106A1.384,1.384,0,0,1,15.822,0a.84.84,0,0,1,.886,1.105,1.375,1.375,0,0,1-1.356,1.106" fill="#fff"/>
            <path id="パス_65024" data-name="パス 65024" d="M27.13,11.032H21.2L23.493.266h2.074L23.651,9.282H27.5Z" fill="#fff"/>
            <path id="パス_65025" data-name="パス 65025" d="M39.027,5.516c-.8,3.752-3.109,5.67-5.785,5.67-2.844,0-3.948-2.38-3.285-5.5C30.641,2.464,32.923.1,35.738.1c2.984,0,3.9,2.548,3.289,5.418m-6.89.126c-.449,2.114.008,3.85,1.535,3.85s2.7-1.722,3.166-3.892c.42-1.974.068-3.808-1.515-3.808-1.625,0-2.767,1.876-3.186,3.85" fill="#fff"/>
            <path id="パス_65026" data-name="パス 65026" d="M50.391.266,44.825,11.032H42.457L41.622.266h2.269l.207,4.76c.052,1.274.1,2.562.048,3.864h.042C44.7,7.6,45.3,6.286,45.906,5.026L48.163.266Z" fill="#fff"/>
            <path id="パス_65027" data-name="パス 65027" d="M56.068,11.032H50.045L52.333.266h5.8L57.762,2H54.037l-.553,2.6H57L56.639,6.3H53.124l-.637,3h3.95Z" fill="#fff"/>
            <path id="パス_65028" data-name="パス 65028" d="M71.992.266,67.457,6.58l-.946,4.452H64.437l.931-4.382L63.672.266h2.31l.5,2.646c.144.77.253,1.442.349,2.184h.027c.361-.714.777-1.414,1.251-2.2l1.6-2.632Z" fill="#fff"/>
            <path id="パス_65029" data-name="パス 65029" d="M81.265,5.516c-.8,3.752-3.109,5.67-5.785,5.67-2.844,0-3.948-2.38-3.285-5.5C72.879,2.464,75.161.1,77.976.1c2.984,0,3.9,2.548,3.289,5.418m-6.89.126c-.449,2.114.008,3.85,1.535,3.85s2.7-1.722,3.166-3.892c.42-1.974.068-3.808-1.515-3.808-1.625,0-2.767,1.876-3.186,3.85" fill="#fff"/>
            <path id="パス_65030" data-name="パス 65030" d="M91.163,6.565c-.67,3.15-2.481,4.62-4.918,4.62s-3.49-1.442-2.817-4.605L84.772.251h2.074l-1.384,6.51c-.4,1.89.138,2.716,1.2,2.716,1.12,0,1.977-.8,2.384-2.716L90.432.251H92.5Z" fill="#fff"/>
          </g>
        </g>
      </g>
    </g>
  </g>
</svg>
