<svg xmlns="http://www.w3.org/2000/svg" width="231.176" height="14.718" viewBox="0 0 231.176 14.718">
  <g id="_ジャケット風画像をつくろう" data-name="#ジャケット風画像をつくろう" transform="translate(115.588 7.359)">
    <g id="グループ_2089" data-name="グループ 2089" transform="translate(-115.588 -7.359)">
      <g id="グループ_2088" data-name="グループ 2088">
        <path id="パス_64979" data-name="パス 64979" d="M3.368,13.141H2.018L3.059,9.823H1.71L1.943,8.5H3.488L4.2,6.186H2.79l.233-1.325H4.616q.5-1.622,1.01-3.242H6.944q-.5,1.622-.995,3.242H7.466q.5-1.622,1.01-3.242H9.795Q9.3,3.241,8.8,4.861h1.334L9.9,6.186H8.384L7.673,8.5h1.4L8.835,9.823H7.228l-1.01,3.318H4.868L5.894,9.823h-1.5ZM4.823,8.5H6.339l.7-2.313h-1.5Z" transform="translate(-1.71 0.162)"/>
        <path id="パス_64980" data-name="パス 64980" d="M18.7,5.161a.548.548,0,0,1-.466.32c-.968,3.334-2.831,6.773-6.2,8.615a10.742,10.742,0,0,0-1.438-1.218c3.155-1.553,4.869-4.566,5.682-7.975Zm6.312-2.952a.568.568,0,0,1-.344.228A20.643,20.643,0,0,1,20.6,7.353a8.671,8.671,0,0,0-1.514-1.036,11.3,11.3,0,0,0,2.772-3H12.05q.159-.907.32-1.812H23.284l.237-.137Z" transform="translate(0.853 0.09)"/>
        <path id="パス_64981" data-name="パス 64981" d="M33.816,2.274a.6.6,0,0,1-.514.169A52.275,52.275,0,0,1,28.6,5.9c.159.046.312.122.455.169a.592.592,0,0,1-.49.289q-.7,3.972-1.4,7.945H25.146q.632-3.576,1.263-7.153a55.7,55.7,0,0,1-5.535,2.847,5.534,5.534,0,0,0-.893-1.477A43.734,43.734,0,0,0,32.152.875Z" transform="translate(3.564 -0.053)"/>
        <path id="パス_64982" data-name="パス 64982" d="M44.347,7.655a.416.416,0,0,1-.129.031.3.3,0,0,1-.2-.076c-1.2.335-2.783.822-3.981,1.247-.024.305-.086.655-.149,1.021s-.134.76-.242,1.2l-1.934.137c.143-.563.285-1.187.348-1.629-1.286.594-2.289,1.37-2.39,1.948-.119.67.668.943,2.381.943a34.893,34.893,0,0,0,3.787-.166l-.28,1.764c-.8.093-2.111.107-3.823.107-2.927,0-4.268-.653-3.934-2.541.214-1.218,2.036-2.6,4.367-3.7.031-.442-.122-.853-.579-.853-1,0-2.153.518-3.646,1.933-.439.427-1.1,1.019-1.87,1.66L30.959,9.375A22.792,22.792,0,0,0,33.12,7.61a11.768,11.768,0,0,0,2.259-3.18l-.58.014c-.332,0-1.974.015-2.349,0l.3-1.719c.84.045,1.932.045,2.6.045l.807-.015c.247-.624.445-1.233.674-2.009l2.278.228a.5.5,0,0,1-.43.289c-.162.488-.363.945-.567,1.416a18.4,18.4,0,0,0,4.755-.838q-.006.9-.013,1.8a24.741,24.741,0,0,1-5.544.746,11.552,11.552,0,0,1-1.057,1.781h.015a4.162,4.162,0,0,1,2.207-.746c.88,0,1.543.624,1.567,1.781,1.255-.5,2.771-1.021,3.939-1.461Z" transform="translate(6.733 -0.09)"/>
        <path id="パス_64983" data-name="パス 64983" d="M45.163,7.043a19.885,19.885,0,0,1-1.619,1.7,13.034,13.034,0,0,0-.539-1.841A23.39,23.39,0,0,0,47.613.544l1.894.7a.478.478,0,0,1-.459.183c-.549.974-1.164,1.964-1.816,2.907l.535.153a.444.444,0,0,1-.441.258q-.891,5.061-1.783,10.121h-1.76ZM54.88,9.114a15.32,15.32,0,0,1,1.66,4.946l-1.914.793a6.062,6.062,0,0,0-.162-1.142c-2.709.228-5.463.456-7.286.563a.445.445,0,0,1-.347.259l-.211-2.071,1.51-.061a40.137,40.137,0,0,0,2.232-4.566H47.541q.157-.883.312-1.765h9.9l-.311,1.765H52.332l.371.121a.577.577,0,0,1-.494.228,40.873,40.873,0,0,1-2.2,4.125c1.282-.045,2.66-.121,4.036-.2a20.674,20.674,0,0,0-.9-2.313Zm2.9-7.58-.309,1.75H49.449q.155-.876.308-1.75Z" transform="translate(10.21 -0.148)"/>
        <path id="パス_64984" data-name="パス 64984" d="M61.924,8.862a3.93,3.93,0,0,1,1.3-.259,1.122,1.122,0,0,1,1.125,1.447c-.077.441-.2.973-.247,1.232-.2,1.157.433,1.157,1.22,1.157a13.6,13.6,0,0,0,2.17-.183c-.045.259-.1.487-.139.7-.142.807-.166,1.2-.166,1.2-.646.045-1.442.09-2.169.09a10.25,10.25,0,0,1-1.308-.061c-1.235-.137-1.8-.9-1.63-1.933.064-.365.2-.974.269-1.354.082-.472-.079-.762-.487-.762a4.879,4.879,0,0,0-2.719,1.233c-.911.776-2.728,2.313-3.244,2.831a13.115,13.115,0,0,0-1.177-1.491c1.785-1.447,6.567-5.267,8.005-6.454-1,.09-3.665.244-5.231.349-.116.138-.155.183-.276.183l.211-2.055c2.072-.061,5.9-.2,7.533-.335l.3-.168,1.218,1.356a.621.621,0,0,1-.418.121c-1.108.793-2.718,2.01-4.146,3.135Zm3.8-5.327a32.1,32.1,0,0,0-6.045-.974L60.453.78a30.751,30.751,0,0,1,6.085.914Z" transform="translate(13.593 -0.08)"/>
        <path id="パス_64985" data-name="パス 64985" d="M71.372,6.7a8.78,8.78,0,0,1,2.995-.563c2.3,0,3.647,1.415,3.225,3.8-.481,2.725-3.125,4.308-6.43,4.308-1.956,0-3.177-.9-2.906-2.436A3.124,3.124,0,0,1,71.319,9.58a2.469,2.469,0,0,1,2.653,2.4,2.755,2.755,0,0,0,1.616-2.023c.231-1.311-.7-2.147-2.229-2.147A9.026,9.026,0,0,0,67.978,9.7c-.423.336-1.137.945-1.608,1.385L65.26,9.733c1.265-1.08,5.728-4.718,8.091-6.606-.762.107-3.408.244-4.635.32a.694.694,0,0,1-.4.228l.211-2.146c1.941,0,6.246-.168,7.276-.335l.246-.107L77,2.64a.89.89,0,0,1-.468.168c-.892.579-3.718,2.771-5.157,3.881Zm-.236,5.89a5.925,5.925,0,0,0,.941-.091A1.229,1.229,0,0,0,70.9,11.118a1.029,1.029,0,0,0-1.08.7C69.692,12.534,70.638,12.595,71.136,12.595Z" transform="translate(16.634 0.008)"/>
        <path id="パス_64986" data-name="パス 64986" d="M89.953,5.734h-4.17l-1.067,6.392c-.349,2.161-1.7,2.161-4.655,2.161a8.581,8.581,0,0,0-.178-1.75c.393.015.832.015,1.226.015,1.441,0,1.667,0,1.718-.456q.41-2.459.821-4.916a26.887,26.887,0,0,1-6.628,5.084,5.191,5.191,0,0,0-1.093-1.447A24.815,24.815,0,0,0,82.8,5.734H77.565l.32-1.812h6.292l.51-3.059L87,.954c-.045.168-.171.289-.481.32q-.218,1.324-.436,2.648h4.184Z" transform="translate(19.713 -0.056)"/>
        <path id="パス_64987" data-name="パス 64987" d="M88.328,9.344q.661-3.744,1.321-7.488l2.358.122c-.045.168-.2.273-.495.32q-.622,3.522-1.244,7.046ZM98.754,1.2c-.041.152-.183.259-.494.3l-.839,4.764c-.57,3.227-2.16,6.225-6.732,7.991a6.649,6.649,0,0,0-1.2-1.415c4.287-1.537,5.521-4.064,5.965-6.59q.458-2.6.915-5.191Z" transform="translate(23.292 0.002)"/>
        <path id="パス_64988" data-name="パス 64988" d="M98.412,5.321a18.216,18.216,0,0,1,3.631,1.416L100.933,8.4A18.649,18.649,0,0,0,97.314,6.9Zm-.826,7.093a19.335,19.335,0,0,0,11.6-8.432,14.007,14.007,0,0,0,1.433,1.247,21.6,21.6,0,0,1-11.647,8.706.469.469,0,0,1-.3.411Zm3.307-10.838a19.467,19.467,0,0,1,3.646,1.508L103.314,4.7a17.232,17.232,0,0,0-3.536-1.613Zm6.983-.487A9.18,9.18,0,0,1,109.292,3.2l-1.048.7A10.553,10.553,0,0,0,106.9,1.743Zm2.455-.852a10.874,10.874,0,0,1,1.421,2.085l-1.033.7A11.076,11.076,0,0,0,109.364.907Z" transform="translate(25.886 -0.237)"/>
        <path id="パス_64989" data-name="パス 64989" d="M121.519,6.484h-5.26c-.919,3.577-2.338,5.952-6,7.9a9.689,9.689,0,0,0-1.365-1.294,9.11,9.11,0,0,0,5.38-6.606h-5.5q.16-.92.323-1.841h5.594c.111-.548.41-2.237.693-3.85l2.475.152c-.064.2-.222.3-.517.351-.231,1.218-.425,2.329-.651,3.348h5.155Z" transform="translate(29.193 -0.077)"/>
        <path id="パス_64990" data-name="パス 64990" d="M124.895,3.151a.5.5,0,0,1-.452.335c-.848,4.367-1.879,7.9-4.452,10.715a17.021,17.021,0,0,0-1.523-.99c2.432-2.36,3.4-6.316,4.09-10.213Zm2.5,7.915a11.329,11.329,0,0,0,4.934-5.541,8.646,8.646,0,0,0,1.528,1.052,14.618,14.618,0,0,1-7.309,6.97,1.369,1.369,0,0,1-.415.38L125,12.253l.3-.32,1.91-10.822,2.343.122a.556.556,0,0,1-.49.365Q128.23,6.332,127.395,11.066Z" transform="translate(31.992 0.015)"/>
        <path id="パス_64991" data-name="パス 64991" d="M132.869,5.321A18.216,18.216,0,0,1,136.5,6.737L135.39,8.4A18.648,18.648,0,0,0,131.771,6.9Zm-.826,7.093a19.335,19.335,0,0,0,11.6-8.432,14.147,14.147,0,0,0,1.433,1.247,21.6,21.6,0,0,1-11.647,8.706.469.469,0,0,1-.3.411ZM135.35,1.576A19.467,19.467,0,0,1,139,3.084L137.771,4.7a17.232,17.232,0,0,0-3.536-1.613Q134.792,2.33,135.35,1.576Zm6.983-.487A9.178,9.178,0,0,1,143.749,3.2l-1.048.7a10.553,10.553,0,0,0-1.349-2.161Zm2.455-.852a10.873,10.873,0,0,1,1.421,2.085l-1.033.7A11.075,11.075,0,0,0,143.821.907Z" transform="translate(35.832 -0.237)"/>
        <path id="パス_64992" data-name="パス 64992" d="M153.62,5.637a.468.468,0,0,1-.269.151,17.832,17.832,0,0,1-3.45,4.171,5.088,5.088,0,0,0-1.1-.883,14.515,14.515,0,0,0,2.311-2.527l-3.2.67L148.2,13.4l-1.6.32-.28-6.149-3.2.716-.1-1.43,3.259-.686L146.1,3.155l2.023-.213c-.028.168-.169.273-.367.366l.119,2.51,4.532-.943.169-.091Z" transform="translate(39.079 0.544)"/>
        <path id="パス_64993" data-name="パス 64993" d="M165.99,4.184,165.671,6h-3.229a.415.415,0,0,1-.339.2,13.5,13.5,0,0,1-6.323,8.1,11.959,11.959,0,0,0-1.478-1.171A11.594,11.594,0,0,0,160.167,6H156.8A19.445,19.445,0,0,1,154.088,8.9a11.512,11.512,0,0,0-1.577-.928A18.434,18.434,0,0,0,157.753.852l2.264.486a.515.515,0,0,1-.486.259c-.327.653-.923,1.7-1.486,2.588Z" transform="translate(41.818 -0.059)"/>
        <path id="パス_64994" data-name="パス 64994" d="M166.062,4.136a15.837,15.837,0,0,1,.506,3.227l-1.541.411a15.816,15.816,0,0,0-.463-3.227Zm8.76.351a.421.421,0,0,1-.412.2c-2.036,4.49-4.853,7.139-8.557,8.539a5.175,5.175,0,0,0-.817-1.2c3.457-1.218,6.158-3.638,7.972-8.158ZM169.8,3.5a18.325,18.325,0,0,1,.137,3.348l-1.6.32a18.609,18.609,0,0,0-.151-3.363Z" transform="translate(45.298 0.704)"/>
        <path id="パス_64995" data-name="パス 64995" d="M181.722,9.4a34.883,34.883,0,0,0-4.343-2.283l-1.256,7.124h-2.031q1.179-6.69,2.36-13.379l2.463.122c-.046.182-.193.334-.521.38l-.756,4.291.469-.517a38.867,38.867,0,0,1,5.022,2.39Z" transform="translate(48.048 -0.056)"/>
      </g>
    </g>
  </g>
</svg>
