<?xml version="1.0" encoding="utf-8"?>
<!-- Generator: Adobe Illustrator 22.1.0, SVG Export Plug-In . SVG Version: 6.00 Build 0)  -->
<svg version="1.1" xmlns="http://www.w3.org/2000/svg" xmlns:xlink="http://www.w3.org/1999/xlink" x="0px" y="0px"
	 viewBox="0 0 356.5 73.9" style="enable-background:new 0 0 356.5 73.9;" xml:space="preserve">
<style type="text/css">
	.st0{fill:none;}
	.st1{fill:#FFFFFF;}
</style>
<g id="レイヤー_2">
</g>
<g id="レイヤー_1">
	<title>logo</title>
	<g>
		<g id="XMLID_1_">
			<path id="XMLID_12_" class="st0" d="M54.4,27.7c-5.2,0-9.2,4.1-9.2,9.3s4.1,9.3,9.2,9.3c5.2,0,9.2-4.1,9.2-9.3
				C63.6,31.8,59.5,27.7,54.4,27.7z"/>
			<path id="XMLID_11_" class="st1" d="M26.2,5.9l-4.8,24.5C18.8,43.9,12,46.2,2.8,46.1H1.7L0,54.9h1c14.4,0.1,25.7-5.6,29.4-24.5
				l4.8-24.5C35.2,5.9,26.2,5.9,26.2,5.9z"/>
			<path class="st1" d="M54.4,19.2c-9.8,0-18,7.9-18,17.8c0,10,8.1,17.8,18,17.8c9.8,0,18-7.8,18-17.8
				C72.3,27.1,64.2,19.2,54.4,19.2z M54.4,46.3c-5.2,0-9.2-4.1-9.2-9.3s4.1-9.3,9.2-9.3c5.2,0,9.2,4.1,9.2,9.3
				C63.6,42.3,59.5,46.3,54.4,46.3z"/>
			<path id="XMLID_7_" class="st1" d="M255.4,32.1c-2.5-0.9-3-2.1-2.3-3.1c0.5-0.8,1.8-1.4,3.3-1.3c1.3,0.1,2.9,0.6,4.3,1.9l6.6-5.6
				c-3.2-3.3-5.3-4.8-10.4-4.8c-5.9,0-11.7,4.6-12.9,10.7c-1.2,6.4,3.4,8.4,7.4,9.9c3,1.1,5.2,2.2,4.2,4.6c-0.4,1.2-1.7,2.1-3.6,2.1
				c-2.1-0.1-5-1.8-6.8-4l-6.5,5.5c1.5,2.6,5,7.1,11.6,7.1c6.9,0,12.8-4.3,14.1-10.8C265.7,38,262.8,34.8,255.4,32.1z"/>
			<path id="XMLID_6_" class="st1" d="M104.2,19.1c-1.5,0-2.9,0.2-4.2,0.6c-1.3,0.4-2.5,0.9-3.6,1.5s-2.1,1.4-3.1,2.2
				c-0.9,0.8-1.8,1.7-2.6,2.6l3.9-20.1h-8.9l-9.4,48.3h8.9l3.4-17.3c0.6-3,1.8-5.4,3.8-7.1c1.9-1.7,4.2-2.5,6.7-2.5
				c2.6,0,4.5,0.8,5.6,2.5c1.1,1.6,1.4,4,0.8,7l-3.4,17.4h8.9l3.9-20.1c0.9-4.5,0.4-8.2-1.5-10.9C111.7,20.5,108.6,19.1,104.2,19.1z
				"/>
			<path id="XMLID_5_" class="st1" d="M146.3,19.2c-1.5,0-2.9,0.2-4.2,0.6s-2.5,0.9-3.6,1.5s-2.1,1.4-3.1,2.2
				c-0.9,0.8-1.8,1.7-2.6,2.6L134,20h-9l-6.7,34.2h9l3.4-17.3c0.6-3,1.8-5.4,3.8-7.1c1.9-1.7,4.2-2.5,6.7-2.5c2.6,0,4.5,0.8,5.6,2.5
				c1.1,1.6,1.4,4,0.8,7l-3.4,17.5h9l3.9-20.2c0.9-4.6,0.4-8.2-1.5-10.9C153.8,20.5,150.7,19.2,146.3,19.2z"/>
			<path id="XMLID_4_" class="st1" d="M197.7,23.2c-1.9-2.7-5-4-9.4-4c-1.5,0-2.9,0.2-4.2,0.6s-2.5,0.9-3.6,1.5s-2.1,1.4-3.1,2.2
				c-0.9,0.8-1.8,1.7-2.6,2.6L176,20h-9l-6.7,34.2h9l3.4-17.3c0.6-3,1.8-5.4,3.8-7.1c1.9-1.7,4.2-2.5,6.7-2.5c2.6,0,4.5,0.8,5.6,2.5
				c1.1,1.6,1.4,4,0.8,7l-3.4,17.5h9l3.9-20.2C200,29.5,199.6,25.9,197.7,23.2z"/>
			<polygon id="XMLID_3_" class="st1" points="232.8,20 223.5,35.6 218.9,43.3 214,20 205,20 212.3,54.3 200.5,73.9 209.5,73.9 
				232.5,35.6 241.8,20 			"/>
			<path id="XMLID_2_" class="st1" d="M244.8,0l-10,16.7c0,0,5.2,0,5.3,0c2.3-0.1,4.2-1.3,5.5-3L253.8,0H244.8z"/>
		</g>
		<g id="XMLID_153_">
			<g id="XMLID_168_">
				<path id="XMLID_173_" class="st1" d="M298,22.8c-1.7-1.1-3.6-1.7-5.8-1.7c-2.1,0-4.1,0.5-6,1.5c-1.8,1-3.5,2.5-5,4.5l-0.6,0.8
					v-6.1h-3.2v29.3h3.2V40.6c0-4,0.2-6.7,0.6-8.2c0.6-2.3,1.9-4.3,3.8-5.9s4.1-2.4,6.5-2.4c2.1,0,3.9,0.5,5.2,1.6
					c1.3,1,2.2,2.6,2.7,4.7c0.3,1.2,0.4,3.5,0.4,7v14h3.2V36.1c0-4-0.4-7-1.2-8.9C300.9,25.4,299.7,23.9,298,22.8z"/>
				<path id="XMLID_170_" class="st1" d="M323.7,21.1c-4.8,0-8.7,1.9-11.6,5.5c-2.3,2.9-3.4,6.3-3.4,10c0,3.9,1.4,7.5,4.1,10.7
					c2.7,3.1,6.5,4.7,11.2,4.7c2.2,0,4.1-0.3,5.8-1c1.7-0.7,3.3-1.6,4.6-2.9c1.3-1.2,2.5-2.8,3.5-4.7l-2.7-1.4
					c-1.1,1.8-2.2,3.2-3.2,4.1c-1,0.9-2.3,1.6-3.8,2.2c-1.5,0.5-3,0.8-4.6,0.8c-3.2,0-6-1.2-8.2-3.4c-2.2-2.3-3.4-5.2-3.4-8.8v-0.4
					h27c-0.1-3.9-1.2-7.1-3.2-9.7C332.7,23,328.6,21.1,323.7,21.1z M312.2,33.9l0.1-0.4c0.8-2.8,2-4.9,3.6-6.4
					c2.2-1.9,4.8-2.9,7.8-2.9c1.8,0,3.6,0.4,5.3,1.2c1.7,0.8,3,1.8,4,3.1c1,1.3,1.8,3,2.3,5.1l0.1,0.4h-23.2V33.9z"/>
				<polygon id="XMLID_169_" class="st1" points="350.4,10.8 347.2,10.8 347.2,21.9 341.9,21.9 341.9,24.6 347.2,24.6 347.2,51.2 
					350.4,51.2 350.4,24.6 356.5,24.6 356.5,21.9 350.4,21.9 				"/>
			</g>
		</g>
	</g>
</g>
</svg>
